<svg width="114" height="71" viewBox="0 0 114 71" fill="none" xmlns="http://www.w3.org/2000/svg">
<g filter="url(#filter0_di_6_32)">
<path d="M57.998 20.5559C57.4324 20.5559 57.0274 20.4336 56.7828 20.1889C56.5382 19.9289 56.4159 19.4471 56.4159 18.7436C56.4159 18.2695 56.4618 17.6654 56.5535 16.9312C56.6605 16.1818 56.8286 15.1571 57.0579 13.8571C57.4554 11.4559 57.7687 9.37595 57.998 7.61712C58.1356 6.51595 58.2044 5.5983 58.2044 4.86418C58.2044 4.17595 57.9521 3.83183 57.4477 3.83183C57.0503 3.83183 56.5688 4.0383 56.0032 4.45124C55.4529 4.84889 54.8415 5.49124 54.1689 6.3783C53.9549 6.66889 53.718 6.81418 53.4581 6.81418C53.2441 6.81418 53.0531 6.71477 52.8849 6.51595C52.7321 6.30183 52.6556 6.06477 52.6556 5.80477C52.6556 5.56006 52.7015 5.31536 52.7932 5.07065C52.9002 4.81065 53.0684 4.52006 53.2976 4.19889C54.0314 3.17418 54.8491 2.38653 55.751 1.83595C56.6529 1.27006 57.5547 0.987122 58.4566 0.987122C59.2973 0.987122 59.9393 1.25477 60.3826 1.79006C60.8411 2.32536 61.0704 3.10536 61.0704 4.13006C61.0704 4.543 61.0322 5.03242 60.9558 5.5983C60.8794 6.14889 60.8106 6.60006 60.7494 6.95183C60.6883 7.30359 60.6424 7.5483 60.6119 7.68595C61.4831 5.193 62.4614 3.45712 63.5467 2.4783C64.632 1.48418 65.8243 0.987122 67.1236 0.987122C68.1171 0.987122 68.8967 1.33889 69.4623 2.04242C70.0431 2.74595 70.3336 3.74006 70.3336 5.02477C70.3336 5.52947 70.2648 6.15653 70.1272 6.90595C70.8915 4.79536 71.7857 3.28124 72.8099 2.36359C73.834 1.44595 75.011 0.987122 76.3409 0.987122C77.4109 0.987122 78.2286 1.33124 78.7942 2.01947C79.3751 2.70771 79.6655 3.67124 79.6655 4.91006C79.6655 5.583 79.5661 6.40124 79.3674 7.36477L77.9688 13.9259C77.8159 14.6907 77.7395 15.3483 77.7395 15.8989C77.7395 16.5412 77.8847 17.023 78.1751 17.3442C78.4809 17.6654 78.9012 17.8259 79.4362 17.8259C79.9406 17.8259 80.4298 17.6577 80.9036 17.3212C81.3928 16.9848 81.966 16.4265 82.6233 15.6465C82.8067 15.4324 83.0131 15.3254 83.2424 15.3254C83.4411 15.3254 83.5939 15.4171 83.7009 15.6007C83.8232 15.7842 83.8844 16.0365 83.8844 16.3577C83.8844 16.9542 83.7391 17.4283 83.4487 17.7801C82.6539 18.7436 81.8666 19.4471 81.0871 19.8907C80.3075 20.3342 79.4897 20.5559 78.6337 20.5559C77.3344 20.5559 76.3179 20.1736 75.5842 19.4089C74.8505 18.6289 74.4836 17.5889 74.4836 16.2889C74.4836 15.3865 74.6671 14.0789 75.0339 12.3659L75.9511 8.16771C75.9816 8.03006 76.0351 7.78536 76.1116 7.43359C76.188 7.08183 76.2491 6.753 76.295 6.44712C76.3409 6.12595 76.3638 5.81242 76.3638 5.50653C76.3638 4.97124 76.2568 4.57359 76.0428 4.31359C75.8441 4.0383 75.5536 3.90065 75.1715 3.90065C74.4531 3.90065 73.6964 4.36712 72.9016 5.30006C72.122 6.21771 71.373 7.74712 70.6546 9.8883C69.9514 12.0295 69.3782 14.813 68.9349 18.2389C68.8279 19.1565 68.6369 19.7759 68.3617 20.0971C68.1019 20.403 67.6739 20.5559 67.0777 20.5559C66.558 20.5559 66.1759 20.4336 65.9313 20.1889C65.702 19.9442 65.5874 19.4854 65.5874 18.8124C65.5874 18.1854 65.6714 17.3671 65.8396 16.3577C66.0077 15.333 66.2217 14.1324 66.4816 12.7559C67.1847 9.05477 67.5363 6.66889 67.5363 5.5983C67.5363 5.01712 67.4216 4.58889 67.1924 4.31359C66.9784 4.0383 66.6497 3.90065 66.2064 3.90065C65.4574 3.90065 64.6855 4.32889 63.8906 5.18536C63.0958 6.02653 62.3162 7.533 61.5519 9.70477C60.8029 11.8612 60.1762 14.7824 59.6718 18.4683C59.5648 19.2483 59.4043 19.7912 59.1903 20.0971C58.9916 20.403 58.5941 20.5559 57.998 20.5559Z" fill="#4096C2"/>
<path d="M92.263 15.3253C92.4617 15.3253 92.6145 15.4171 92.7215 15.6006C92.8438 15.7842 92.905 16.0365 92.905 16.3577C92.905 16.9695 92.7598 17.4436 92.4693 17.78C91.9038 18.4683 91.1013 19.103 90.0618 19.6842C89.0377 20.2653 87.9371 20.5559 86.7601 20.5559C85.1551 20.5559 83.9093 20.12 83.0228 19.2483C82.1362 18.3765 81.6929 17.1836 81.6929 15.6695C81.6929 14.6142 81.9145 13.6353 82.3578 12.733C82.8011 11.8153 83.4125 11.0889 84.1921 10.5536C84.987 10.0183 85.8812 9.75063 86.8748 9.75063C87.7613 9.75063 88.4721 10.0183 89.0071 10.5536C89.5421 11.0736 89.8096 11.7847 89.8096 12.6871C89.8096 13.7424 89.4275 14.6524 88.6632 15.4171C87.9142 16.1665 86.6378 16.763 84.8341 17.2065C85.2163 17.91 85.9423 18.2618 87.0123 18.2618C87.7002 18.2618 88.4798 18.0247 89.351 17.5506C90.2376 17.0612 91.0019 16.4265 91.6439 15.6465C91.8273 15.4324 92.0337 15.3253 92.263 15.3253ZM86.485 11.9989C85.9194 11.9989 85.4379 12.3277 85.0405 12.9853C84.6583 13.643 84.4673 14.4383 84.4673 15.3712V15.4171C85.3691 15.203 86.0799 14.8818 86.5996 14.4536C87.1193 14.0253 87.3792 13.5283 87.3792 12.9624C87.3792 12.6718 87.2951 12.4424 87.127 12.2742C86.9741 12.0906 86.7601 11.9989 86.485 11.9989ZM101.264 15.3253C101.463 15.3253 101.616 15.4171 101.723 15.6006C101.845 15.7842 101.906 16.0365 101.906 16.3577C101.906 16.9695 101.761 17.4436 101.471 17.78C100.905 18.4683 100.103 19.103 99.0631 19.6842C98.0389 20.2653 96.9384 20.5559 95.7614 20.5559C94.1564 20.5559 92.9106 20.12 92.024 19.2483C91.1374 18.3765 90.6942 17.1836 90.6942 15.6695C90.6942 14.6142 90.9158 13.6353 91.3591 12.733C91.8024 11.8153 92.4138 11.0889 93.1934 10.5536C93.9882 10.0183 94.8824 9.75063 95.876 9.75063C96.7626 9.75063 97.4734 10.0183 98.0084 10.5536C98.5434 11.0736 98.8109 11.7847 98.8109 12.6871C98.8109 13.7424 98.4287 14.6524 97.6644 15.4171C96.9154 16.1665 95.6391 16.763 93.8354 17.2065C94.2175 17.91 94.9436 18.2618 96.0136 18.2618C96.7014 18.2618 97.481 18.0247 98.3523 17.5506C99.2389 17.0612 100.003 16.4265 100.645 15.6465C100.829 15.4324 101.035 15.3253 101.264 15.3253ZM95.4862 11.9989C94.9207 11.9989 94.4392 12.3277 94.0417 12.9853C93.6596 13.643 93.4685 14.4383 93.4685 15.3712V15.4171C94.3704 15.203 95.0811 14.8818 95.6009 14.4536C96.1206 14.0253 96.3804 13.5283 96.3804 12.9624C96.3804 12.6718 96.2964 12.4424 96.1282 12.2742C95.9754 12.0906 95.7614 11.9989 95.4862 11.9989ZM103.823 11.93C103.792 12.6947 103.777 13.2912 103.777 13.7195C103.777 14.8206 103.83 15.6847 103.937 16.3118C104.059 16.9236 104.251 17.3671 104.51 17.6424C104.786 17.9024 105.16 18.0324 105.634 18.0324C105.878 18.0324 106.169 17.9559 106.505 17.803C106.841 17.65 107.147 17.4512 107.422 17.2065C107.59 17.0536 107.759 16.9771 107.927 16.9771C108.11 16.9771 108.255 17.0842 108.362 17.2983C108.485 17.4971 108.546 17.7418 108.546 18.0324C108.546 18.323 108.485 18.6059 108.362 18.8812C108.255 19.1565 108.087 19.3859 107.858 19.5695C107.063 20.2271 106.161 20.5559 105.152 20.5559C103.7 20.5559 102.638 19.9518 101.965 18.7436C101.293 17.52 100.956 15.9295 100.956 13.9718C100.956 13.2989 100.979 12.6183 101.025 11.93H100.131C99.6725 11.93 99.3591 11.8459 99.191 11.6777C99.0381 11.5095 98.9617 11.2418 98.9617 10.8747C98.9617 10.0183 99.3056 9.59004 99.9935 9.59004H101.3C101.56 7.90769 101.958 6.37063 102.493 4.97887C103.028 3.5871 103.67 2.47828 104.419 1.6524C105.183 0.826515 106.001 0.413574 106.872 0.413574C107.514 0.413574 108.018 0.696515 108.385 1.2624C108.752 1.82828 108.936 2.53946 108.936 3.39593C108.936 5.76651 107.942 7.83122 105.955 9.59004H108.523C108.767 9.59004 108.943 9.64357 109.05 9.75063C109.157 9.85769 109.211 10.0565 109.211 10.3471C109.211 11.4024 108.347 11.93 106.62 11.93H103.823ZM106.253 2.61593C106.024 2.61593 105.764 2.90652 105.473 3.48769C105.198 4.05357 104.931 4.84887 104.671 5.87357C104.426 6.88299 104.22 8.0071 104.052 9.24593C104.954 8.46593 105.626 7.59416 106.07 6.63063C106.528 5.65181 106.757 4.76475 106.757 3.96946C106.757 3.0671 106.589 2.61593 106.253 2.61593Z" fill="#1E2F42"/>
</g>
<g filter="url(#filter1_di_6_32)">
<path d="M13.7306 43.5863C12.7251 43.5863 12.005 43.3687 11.5702 42.9337C11.1354 42.4714 10.918 41.615 10.918 40.3643C10.918 39.5215 10.9995 38.4474 11.1626 37.1423C11.3528 35.8101 11.6517 33.9883 12.0593 31.6772C12.7659 27.4085 13.3229 23.7107 13.7306 20.5839C13.9751 18.6263 14.0974 16.9949 14.0974 15.6898C14.0974 14.4663 13.649 13.8545 12.7523 13.8545C12.0457 13.8545 11.1897 14.2216 10.1843 14.9557C9.20598 15.6626 8.119 16.8046 6.92332 18.3816C6.54287 18.8981 6.12167 19.1565 5.6597 19.1565C5.27925 19.1565 4.93958 18.9797 4.64065 18.6263C4.36891 18.2456 4.23303 17.8242 4.23303 17.3619C4.23303 16.927 4.31456 16.4918 4.4776 16.0568C4.66782 15.5946 4.96675 15.078 5.37437 14.507C6.67875 12.6854 8.13258 11.2851 9.73589 10.3063C11.3392 9.30025 12.9425 8.79724 14.5458 8.79724C16.0404 8.79724 17.1817 9.27305 17.9698 10.2247C18.785 11.1764 19.1927 12.563 19.1927 14.3847C19.1927 15.1188 19.1248 15.9889 18.9888 16.9949C18.8529 17.9737 18.7306 18.7758 18.622 19.4012C18.5133 20.0266 18.4318 20.4616 18.3774 20.7063C19.9264 16.2744 21.6655 13.1883 23.5949 11.4482C25.5244 9.6809 27.644 8.79724 29.9538 8.79724C31.7202 8.79724 33.1061 9.42261 34.1115 10.6733C35.1442 11.924 35.6605 13.6914 35.6605 15.9753C35.6605 16.8725 35.5382 17.9874 35.2936 19.3196C36.6524 15.5674 38.2421 12.8757 40.0627 11.2443C41.8834 9.61293 43.9759 8.79724 46.3401 8.79724C48.2423 8.79724 49.6962 9.40901 50.7016 10.6325C51.7343 11.8561 52.2506 13.569 52.2506 15.7714C52.2506 16.9677 52.0739 18.4223 51.7207 20.1353L49.2342 31.7996C48.9625 33.1591 48.8266 34.3282 48.8266 35.307C48.8266 36.449 49.0848 37.3055 49.601 37.8765C50.1446 38.4474 50.8918 38.7329 51.8429 38.7329C52.7397 38.7329 53.6093 38.4338 54.4517 37.8357C55.3213 37.2375 56.3404 36.2451 57.5088 34.8584C57.8349 34.4777 58.2018 34.2874 58.6094 34.2874C58.9626 34.2874 59.2345 34.4506 59.4247 34.7768C59.6421 35.1031 59.7507 35.5518 59.7507 36.1227C59.7507 37.1831 59.4925 38.026 58.9763 38.6514C57.5632 40.3643 56.1637 41.615 54.7778 42.4035C53.3919 43.1921 51.9381 43.5863 50.4163 43.5863C48.1065 43.5863 46.2993 42.9066 44.9949 41.547C43.6906 40.1604 43.0384 38.3114 43.0384 36.0004C43.0384 34.3962 43.3645 32.0714 44.0167 29.0263L45.6471 21.5627C45.7015 21.318 45.7965 20.883 45.9325 20.2576C46.0684 19.6322 46.177 19.0477 46.2586 18.5039C46.3401 17.9329 46.3808 17.3756 46.3808 16.8318C46.3808 15.8801 46.1907 15.1732 45.8102 14.711C45.457 14.2216 44.9405 13.9768 44.2612 13.9768C42.984 13.9768 41.6388 14.8062 40.2258 16.4647C38.8399 18.0961 37.5084 20.815 36.2311 24.6216C34.9811 28.4281 33.9621 33.3765 33.174 39.467C32.9838 41.0984 32.6441 42.1996 32.1549 42.7706C31.6929 43.3144 30.9321 43.5863 29.8723 43.5863C28.9484 43.5863 28.2689 43.3687 27.8342 42.9337C27.4266 42.4987 27.2227 41.683 27.2227 40.4867C27.2227 39.3718 27.3722 37.9172 27.6711 36.1227C27.9701 34.3011 28.3505 32.1667 28.8125 29.7196C30.0625 23.1397 30.6875 18.8981 30.6875 16.9949C30.6875 15.9616 30.4837 15.2004 30.0761 14.711C29.6956 14.2216 29.1114 13.9768 28.3233 13.9768C26.9918 13.9768 25.6194 14.7381 24.2064 16.2608C22.7933 17.7562 21.4074 20.4344 20.0487 24.2953C18.7171 28.129 17.6029 33.3223 16.7062 39.8749C16.516 41.2616 16.2307 42.2267 15.8502 42.7706C15.4969 43.3144 14.7904 43.5863 13.7306 43.5863Z" fill="#1E2F42"/>
<path d="M13.7306 43.5863C12.7251 43.5863 12.005 43.3687 11.5702 42.9337C11.1354 42.4714 10.918 41.615 10.918 40.3643C10.918 39.5215 10.9995 38.4474 11.1626 37.1423C11.3528 35.8101 11.6517 33.9883 12.0593 31.6772C12.7659 27.4085 13.3229 23.7107 13.7306 20.5839C13.9751 18.6263 14.0974 16.9949 14.0974 15.6898C14.0974 14.4663 13.649 13.8545 12.7523 13.8545C12.0457 13.8545 11.1897 14.2216 10.1843 14.9557C9.20598 15.6626 8.119 16.8046 6.92332 18.3816C6.54287 18.8981 6.12167 19.1565 5.6597 19.1565C5.27925 19.1565 4.93958 18.9797 4.64065 18.6263C4.36891 18.2456 4.23303 17.8242 4.23303 17.3619C4.23303 16.927 4.31456 16.4918 4.4776 16.0568C4.66782 15.5946 4.96675 15.078 5.37437 14.507C6.67875 12.6854 8.13258 11.2851 9.73589 10.3063C11.3392 9.30025 12.9425 8.79724 14.5458 8.79724C16.0404 8.79724 17.1817 9.27305 17.9698 10.2247C18.785 11.1764 19.1927 12.563 19.1927 14.3847C19.1927 15.1188 19.1248 15.9889 18.9888 16.9949C18.8529 17.9737 18.7306 18.7758 18.622 19.4012C18.5133 20.0266 18.4318 20.4616 18.3774 20.7063C19.9264 16.2744 21.6655 13.1883 23.5949 11.4482C25.5244 9.6809 27.644 8.79724 29.9538 8.79724C31.7202 8.79724 33.1061 9.42261 34.1115 10.6733C35.1442 11.924 35.6605 13.6914 35.6605 15.9753C35.6605 16.8725 35.5382 17.9874 35.2936 19.3196C36.6524 15.5674 38.2421 12.8757 40.0627 11.2443C41.8834 9.61293 43.9759 8.79724 46.3401 8.79724C48.2423 8.79724 49.6962 9.40901 50.7016 10.6325C51.7343 11.8561 52.2506 13.569 52.2506 15.7714C52.2506 16.9677 52.0739 18.4223 51.7207 20.1353L49.2342 31.7996C48.9625 33.1591 48.8266 34.3282 48.8266 35.307C48.8266 36.449 49.0848 37.3055 49.601 37.8765C50.1446 38.4474 50.8918 38.7329 51.8429 38.7329C52.7397 38.7329 53.6093 38.4338 54.4517 37.8357C55.3213 37.2375 56.3404 36.2451 57.5088 34.8584C57.8349 34.4777 58.2018 34.2874 58.6094 34.2874C58.9626 34.2874 59.2345 34.4506 59.4247 34.7768C59.6421 35.1031 59.7507 35.5518 59.7507 36.1227C59.7507 37.1831 59.4925 38.026 58.9763 38.6514C57.5632 40.3643 56.1637 41.615 54.7778 42.4035C53.3919 43.1921 51.9381 43.5863 50.4163 43.5863C48.1065 43.5863 46.2993 42.9066 44.9949 41.547C43.6906 40.1604 43.0384 38.3114 43.0384 36.0004C43.0384 34.3962 43.3645 32.0714 44.0167 29.0263L45.6471 21.5627C45.7015 21.318 45.7965 20.883 45.9325 20.2576C46.0684 19.6322 46.177 19.0477 46.2586 18.5039C46.3401 17.9329 46.3808 17.3756 46.3808 16.8318C46.3808 15.8801 46.1907 15.1732 45.8102 14.711C45.457 14.2216 44.9405 13.9768 44.2612 13.9768C42.984 13.9768 41.6388 14.8062 40.2258 16.4647C38.8399 18.0961 37.5084 20.815 36.2311 24.6216C34.9811 28.4281 33.9621 33.3765 33.174 39.467C32.9838 41.0984 32.6441 42.1996 32.1549 42.7706C31.6929 43.3144 30.9321 43.5863 29.8723 43.5863C28.9484 43.5863 28.2689 43.3687 27.8342 42.9337C27.4266 42.4987 27.2227 41.683 27.2227 40.4867C27.2227 39.3718 27.3722 37.9172 27.6711 36.1227C27.9701 34.3011 28.3505 32.1667 28.8125 29.7196C30.0625 23.1397 30.6875 18.8981 30.6875 16.9949C30.6875 15.9616 30.4837 15.2004 30.0761 14.711C29.6956 14.2216 29.1114 13.9768 28.3233 13.9768C26.9918 13.9768 25.6194 14.7381 24.2064 16.2608C22.7933 17.7562 21.4074 20.4344 20.0487 24.2953C18.7171 28.129 17.6029 33.3223 16.7062 39.8749C16.516 41.2616 16.2307 42.2267 15.8502 42.7706C15.4969 43.3144 14.7904 43.5863 13.7306 43.5863Z" fill="#DB88A7"/>
<path d="M61.4799 43.5863C59.7951 43.5863 58.4499 42.9745 57.4445 41.751C56.4391 40.5274 55.9363 38.9232 55.9363 36.9384C55.9363 34.7632 56.4391 32.7105 57.4445 30.78C58.4499 28.8223 59.7816 27.2589 61.4392 26.0898C63.124 24.8934 64.9039 24.2953 66.779 24.2953C67.3768 24.2953 67.7709 24.4176 67.9611 24.6623C68.1785 24.8799 68.3551 25.2877 68.491 25.8859C69.0617 25.7772 69.6595 25.7227 70.2845 25.7227C71.616 25.7227 72.2819 26.1985 72.2819 27.1502C72.2819 27.7212 72.078 29.0807 71.6704 31.2286C71.0454 34.3554 70.7329 36.5306 70.7329 37.7541C70.7329 38.1619 70.8281 38.4882 71.0182 38.7329C71.2357 38.9776 71.5074 39.1 71.8335 39.1C72.3497 39.1 72.9748 38.7737 73.7085 38.1212C74.4422 37.4415 75.4341 36.3538 76.6841 34.8584C77.0102 34.4777 77.3771 34.2874 77.7847 34.2874C78.1379 34.2874 78.4098 34.4506 78.5999 34.7768C78.8174 35.1031 78.926 35.5518 78.926 36.1227C78.926 37.2103 78.6678 38.0532 78.1516 38.6514C77.0374 40.038 75.8553 41.2071 74.6053 42.1588C73.3553 43.1105 72.1459 43.5863 70.9775 43.5863C70.0807 43.5863 69.2518 43.2871 68.491 42.689C67.7573 42.0636 67.2002 41.2208 66.8198 40.1604C65.4067 42.4443 63.6267 43.5863 61.4799 43.5863ZM62.9474 39.467C63.5452 39.467 64.1158 39.1136 64.6594 38.4067C65.2029 37.6997 65.5969 36.7616 65.8415 35.5925L67.3497 28.0882C66.2083 28.1154 65.1485 28.5505 64.1702 29.3933C63.2191 30.209 62.4582 31.2965 61.8876 32.6561C61.3169 34.0156 61.0316 35.4565 61.0316 36.9792C61.0316 37.822 61.1946 38.4474 61.5207 38.8553C61.8739 39.2631 62.3496 39.467 62.9474 39.467ZM91.755 30.9431C91.755 33.0911 91.2522 35.1303 90.2468 37.0608C89.2685 38.964 87.9505 40.5138 86.2929 41.7102C84.6624 42.9066 82.9096 43.5318 81.0346 43.5863C80.6812 48.8338 79.8796 53.2114 78.6296 56.7188C77.3795 60.2534 75.5452 62.0208 73.1266 62.0208C71.6592 62.0208 70.5723 61.4906 69.8657 60.4302C69.1592 59.3698 68.8059 57.9016 68.8059 56.0255C68.8059 53.3609 69.4173 50.2477 70.6402 46.6859C71.863 43.1513 73.7517 39.2495 76.3062 34.9808C76.3062 31.0111 76.2789 28.2514 76.2247 26.7016C76.1974 25.913 76.51 25.2877 77.1622 24.8255C77.8144 24.3632 78.6296 24.1321 79.6079 24.1321C80.1786 24.1321 80.5862 24.2545 80.8308 24.4992C81.1025 24.7168 81.2519 25.1654 81.2792 25.8451C81.2792 26.5248 81.2926 27.0278 81.3199 27.3541C82.1894 26.2666 83.0454 25.4917 83.8879 25.0294C84.7303 24.54 85.627 24.2953 86.5782 24.2953C88.0999 24.2953 89.3364 24.907 90.2875 26.1306C91.2658 27.3541 91.755 28.9583 91.755 30.9431ZM81.2384 39.671C82.2167 39.4534 83.1134 38.9232 83.9287 38.0804C84.771 37.2103 85.4369 36.1499 85.926 34.8992C86.4151 33.6212 86.6597 32.289 86.6597 30.9023C86.6597 30.0867 86.4967 29.4749 86.1706 29.067C85.8445 28.6321 85.4096 28.4145 84.8662 28.4145C83.8879 28.4145 82.7058 29.4477 81.3199 31.5141C81.2926 32.7105 81.2792 34.4642 81.2792 36.7753C81.2792 38.026 81.2655 38.9913 81.2384 39.671ZM73.4527 58.0239C74.1866 58.0239 74.798 56.4197 75.2871 53.2114C75.7763 50.0302 76.0888 46.0605 76.2247 41.3023C75.0561 44.0213 74.1322 46.6179 73.4527 49.0921C72.7734 51.5663 72.4337 53.6463 72.4337 55.3321C72.4337 56.2023 72.5425 56.8683 72.7598 57.3306C72.9501 57.7928 73.181 58.0239 73.4527 58.0239Z" fill="#1E2F42"/>
</g>
<defs>
<filter id="filter0_di_6_32" x="48.6556" y="0.413574" width="64.5551" height="28.1424" filterUnits="userSpaceOnUse" color-interpolation-filters="sRGB">
<feFlood flood-opacity="0" result="BackgroundImageFix"/>
<feColorMatrix in="SourceAlpha" type="matrix" values="0 0 0 0 0 0 0 0 0 0 0 0 0 0 0 0 0 0 127 0" result="hardAlpha"/>
<feOffset dy="4"/>
<feGaussianBlur stdDeviation="2"/>
<feComposite in2="hardAlpha" operator="out"/>
<feColorMatrix type="matrix" values="0 0 0 0 0 0 0 0 0 0 0 0 0 0 0 0 0 0 0.25 0"/>
<feBlend mode="normal" in2="BackgroundImageFix" result="effect1_dropShadow_6_32"/>
<feBlend mode="normal" in="SourceGraphic" in2="effect1_dropShadow_6_32" result="shape"/>
<feColorMatrix in="SourceAlpha" type="matrix" values="0 0 0 0 0 0 0 0 0 0 0 0 0 0 0 0 0 0 127 0" result="hardAlpha"/>
<feOffset dy="4"/>
<feGaussianBlur stdDeviation="2"/>
<feComposite in2="hardAlpha" operator="arithmetic" k2="-1" k3="1"/>
<feColorMatrix type="matrix" values="0 0 0 0 0 0 0 0 0 0 0 0 0 0 0 0 0 0 0.1 0"/>
<feBlend mode="normal" in2="shape" result="effect2_innerShadow_6_32"/>
</filter>
<filter id="filter1_di_6_32" x="0.233032" y="8.79724" width="95.5219" height="61.2235" filterUnits="userSpaceOnUse" color-interpolation-filters="sRGB">
<feFlood flood-opacity="0" result="BackgroundImageFix"/>
<feColorMatrix in="SourceAlpha" type="matrix" values="0 0 0 0 0 0 0 0 0 0 0 0 0 0 0 0 0 0 127 0" result="hardAlpha"/>
<feOffset dy="4"/>
<feGaussianBlur stdDeviation="2"/>
<feComposite in2="hardAlpha" operator="out"/>
<feColorMatrix type="matrix" values="0 0 0 0 0 0 0 0 0 0 0 0 0 0 0 0 0 0 0.25 0"/>
<feBlend mode="normal" in2="BackgroundImageFix" result="effect1_dropShadow_6_32"/>
<feBlend mode="normal" in="SourceGraphic" in2="effect1_dropShadow_6_32" result="shape"/>
<feColorMatrix in="SourceAlpha" type="matrix" values="0 0 0 0 0 0 0 0 0 0 0 0 0 0 0 0 0 0 127 0" result="hardAlpha"/>
<feOffset dy="4"/>
<feGaussianBlur stdDeviation="2"/>
<feComposite in2="hardAlpha" operator="arithmetic" k2="-1" k3="1"/>
<feColorMatrix type="matrix" values="0 0 0 0 0 0 0 0 0 0 0 0 0 0 0 0 0 0 0.1 0"/>
<feBlend mode="normal" in2="shape" result="effect2_innerShadow_6_32"/>
</filter>
</defs>
</svg>
