<svg width="84" height="51" viewBox="0 0 84 51" fill="none" xmlns="http://www.w3.org/2000/svg">
<g filter="url(#filter0_i_6_4)">
<path d="M43.176 18.09C42.732 18.09 42.414 17.994 42.222 17.802C42.03 17.598 41.934 17.22 41.934 16.668C41.934 16.296 41.97 15.822 42.042 15.246C42.126 14.658 42.258 13.854 42.438 12.834C42.75 10.95 42.996 9.318 43.176 7.938C43.284 7.074 43.338 6.354 43.338 5.778C43.338 5.238 43.14 4.968 42.744 4.968C42.432 4.968 42.054 5.13 41.61 5.454C41.178 5.766 40.698 6.27 40.17 6.966C40.002 7.194 39.816 7.308 39.612 7.308C39.444 7.308 39.294 7.23 39.162 7.074C39.042 6.906 38.982 6.72 38.982 6.516C38.982 6.324 39.018 6.132 39.09 5.94C39.174 5.736 39.306 5.508 39.486 5.256C40.062 4.452 40.704 3.834 41.412 3.402C42.12 2.958 42.828 2.736 43.536 2.736C44.196 2.736 44.7 2.946 45.048 3.366C45.408 3.786 45.588 4.398 45.588 5.202C45.588 5.526 45.558 5.91 45.498 6.354C45.438 6.786 45.384 7.14 45.336 7.416C45.288 7.692 45.252 7.884 45.228 7.992C45.912 6.036 46.68 4.674 47.532 3.906C48.384 3.126 49.32 2.736 50.34 2.736C51.12 2.736 51.732 3.012 52.176 3.564C52.632 4.116 52.86 4.896 52.86 5.904C52.86 6.3 52.806 6.792 52.698 7.38C53.298 5.724 54 4.536 54.804 3.816C55.608 3.096 56.532 2.736 57.576 2.736C58.416 2.736 59.058 3.006 59.502 3.546C59.958 4.086 60.186 4.842 60.186 5.814C60.186 6.342 60.108 6.984 59.952 7.74L58.854 12.888C58.734 13.488 58.674 14.004 58.674 14.436C58.674 14.94 58.788 15.318 59.016 15.57C59.256 15.822 59.586 15.948 60.006 15.948C60.402 15.948 60.786 15.816 61.158 15.552C61.542 15.288 61.992 14.85 62.508 14.238C62.652 14.07 62.814 13.986 62.994 13.986C63.15 13.986 63.27 14.058 63.354 14.202C63.45 14.346 63.498 14.544 63.498 14.796C63.498 15.264 63.384 15.636 63.156 15.912C62.532 16.668 61.914 17.22 61.302 17.568C60.69 17.916 60.048 18.09 59.376 18.09C58.356 18.09 57.558 17.79 56.982 17.19C56.406 16.578 56.118 15.762 56.118 14.742C56.118 14.034 56.262 13.008 56.55 11.664L57.27 8.37C57.294 8.262 57.336 8.07 57.396 7.794C57.456 7.518 57.504 7.26 57.54 7.02C57.576 6.768 57.594 6.522 57.594 6.282C57.594 5.862 57.51 5.55 57.342 5.346C57.186 5.13 56.958 5.022 56.658 5.022C56.094 5.022 55.5 5.388 54.876 6.12C54.264 6.84 53.676 8.04 53.112 9.72C52.56 11.4 52.11 13.584 51.762 16.272C51.678 16.992 51.528 17.478 51.312 17.73C51.108 17.97 50.772 18.09 50.304 18.09C49.896 18.09 49.596 17.994 49.404 17.802C49.224 17.61 49.134 17.25 49.134 16.722C49.134 16.23 49.2 15.588 49.332 14.796C49.464 13.992 49.632 13.05 49.836 11.97C50.388 9.066 50.664 7.194 50.664 6.354C50.664 5.898 50.574 5.562 50.394 5.346C50.226 5.13 49.968 5.022 49.62 5.022C49.032 5.022 48.426 5.358 47.802 6.03C47.178 6.69 46.566 7.872 45.966 9.576C45.378 11.268 44.886 13.56 44.49 16.452C44.406 17.064 44.28 17.49 44.112 17.73C43.956 17.97 43.644 18.09 43.176 18.09Z" fill="#4096C2"/>
<path d="M70.0756 13.986C70.2316 13.986 70.3516 14.058 70.4356 14.202C70.5316 14.346 70.5796 14.544 70.5796 14.796C70.5796 15.276 70.4656 15.648 70.2376 15.912C69.7936 16.452 69.1636 16.95 68.3476 17.406C67.5436 17.862 66.6796 18.09 65.7556 18.09C64.4956 18.09 63.5176 17.748 62.8216 17.064C62.1256 16.38 61.7776 15.444 61.7776 14.256C61.7776 13.428 61.9516 12.66 62.2996 11.952C62.6476 11.232 63.1276 10.662 63.7396 10.242C64.3636 9.822 65.0656 9.612 65.8456 9.612C66.5416 9.612 67.0996 9.822 67.5196 10.242C67.9396 10.65 68.1496 11.208 68.1496 11.916C68.1496 12.744 67.8496 13.458 67.2496 14.058C66.6616 14.646 65.6596 15.114 64.2436 15.462C64.5436 16.014 65.1136 16.29 65.9536 16.29C66.4936 16.29 67.1056 16.104 67.7896 15.732C68.4856 15.348 69.0856 14.85 69.5896 14.238C69.7336 14.07 69.8956 13.986 70.0756 13.986ZM65.5396 11.376C65.0956 11.376 64.7176 11.634 64.4056 12.15C64.1056 12.666 63.9556 13.29 63.9556 14.022V14.058C64.6636 13.89 65.2216 13.638 65.6296 13.302C66.0376 12.966 66.2416 12.576 66.2416 12.132C66.2416 11.904 66.1756 11.724 66.0436 11.592C65.9236 11.448 65.7556 11.376 65.5396 11.376ZM77.142 13.986C77.298 13.986 77.418 14.058 77.502 14.202C77.598 14.346 77.646 14.544 77.646 14.796C77.646 15.276 77.532 15.648 77.304 15.912C76.86 16.452 76.23 16.95 75.414 17.406C74.61 17.862 73.746 18.09 72.822 18.09C71.562 18.09 70.584 17.748 69.888 17.064C69.192 16.38 68.844 15.444 68.844 14.256C68.844 13.428 69.018 12.66 69.366 11.952C69.714 11.232 70.194 10.662 70.806 10.242C71.43 9.822 72.132 9.612 72.912 9.612C73.608 9.612 74.166 9.822 74.586 10.242C75.006 10.65 75.216 11.208 75.216 11.916C75.216 12.744 74.916 13.458 74.316 14.058C73.728 14.646 72.726 15.114 71.31 15.462C71.61 16.014 72.18 16.29 73.02 16.29C73.56 16.29 74.172 16.104 74.856 15.732C75.552 15.348 76.152 14.85 76.656 14.238C76.8 14.07 76.962 13.986 77.142 13.986ZM72.606 11.376C72.162 11.376 71.784 11.634 71.472 12.15C71.172 12.666 71.022 13.29 71.022 14.022V14.058C71.73 13.89 72.288 13.638 72.696 13.302C73.104 12.966 73.308 12.576 73.308 12.132C73.308 11.904 73.242 11.724 73.11 11.592C72.99 11.448 72.822 11.376 72.606 11.376ZM79.1504 11.322C79.1264 11.922 79.1144 12.39 79.1144 12.726C79.1144 13.59 79.1564 14.268 79.2404 14.76C79.3364 15.24 79.4864 15.588 79.6904 15.804C79.9064 16.008 80.2004 16.11 80.5724 16.11C80.7644 16.11 80.9924 16.05 81.2564 15.93C81.5204 15.81 81.7604 15.654 81.9764 15.462C82.1084 15.342 82.2404 15.282 82.3724 15.282C82.5164 15.282 82.6304 15.366 82.7144 15.534C82.8104 15.69 82.8584 15.882 82.8584 16.11C82.8584 16.338 82.8104 16.56 82.7144 16.776C82.6304 16.992 82.4984 17.172 82.3184 17.316C81.6944 17.832 80.9864 18.09 80.1944 18.09C79.0544 18.09 78.2204 17.616 77.6924 16.668C77.1644 15.708 76.9004 14.46 76.9004 12.924C76.9004 12.396 76.9184 11.862 76.9544 11.322H76.2524C75.8924 11.322 75.6464 11.256 75.5144 11.124C75.3944 10.992 75.3344 10.782 75.3344 10.494C75.3344 9.822 75.6044 9.486 76.1444 9.486H77.1704C77.3744 8.166 77.6864 6.96 78.1064 5.868C78.5264 4.776 79.0304 3.906 79.6184 3.258C80.2184 2.61 80.8604 2.286 81.5444 2.286C82.0484 2.286 82.4444 2.508 82.7324 2.952C83.0204 3.396 83.1644 3.954 83.1644 4.626C83.1644 6.486 82.3844 8.106 80.8244 9.486H82.8404C83.0324 9.486 83.1704 9.528 83.2544 9.612C83.3384 9.696 83.3804 9.852 83.3804 10.08C83.3804 10.908 82.7024 11.322 81.3464 11.322H79.1504ZM81.0584 4.014C80.8784 4.014 80.6744 4.242 80.4464 4.698C80.2304 5.142 80.0204 5.766 79.8164 6.57C79.6244 7.362 79.4624 8.244 79.3304 9.216C80.0384 8.604 80.5664 7.92 80.9144 7.164C81.2744 6.396 81.4544 5.7 81.4544 5.076C81.4544 4.368 81.3224 4.014 81.0584 4.014Z" fill="#1E2F42"/>
</g>
<g filter="url(#filter1_i_6_4)">
<path d="M8.424 36.16C7.63467 36.16 7.06933 35.9893 6.728 35.648C6.38667 35.2853 6.216 34.6133 6.216 33.632C6.216 32.9707 6.28 32.128 6.408 31.104C6.55733 30.0587 6.792 28.6293 7.112 26.816C7.66667 23.4667 8.104 20.5653 8.424 18.112C8.616 16.576 8.712 15.296 8.712 14.272C8.712 13.312 8.36 12.832 7.656 12.832C7.10133 12.832 6.42933 13.12 5.64 13.696C4.872 14.2507 4.01867 15.1467 3.08 16.384C2.78133 16.7893 2.45067 16.992 2.088 16.992C1.78933 16.992 1.52267 16.8533 1.288 16.576C1.07467 16.2773 0.968 15.9467 0.968 15.584C0.968 15.2427 1.032 14.9013 1.16 14.56C1.30933 14.1973 1.544 13.792 1.864 13.344C2.888 11.9147 4.02933 10.816 5.288 10.048C6.54667 9.25867 7.80533 8.864 9.064 8.864C10.2373 8.864 11.1333 9.23733 11.752 9.984C12.392 10.7307 12.712 11.8187 12.712 13.248C12.712 13.824 12.6587 14.5067 12.552 15.296C12.4453 16.064 12.3493 16.6933 12.264 17.184C12.1787 17.6747 12.1147 18.016 12.072 18.208C13.288 14.7307 14.6533 12.3093 16.168 10.944C17.6827 9.55733 19.3467 8.864 21.16 8.864C22.5467 8.864 23.6347 9.35467 24.424 10.336C25.2347 11.3173 25.64 12.704 25.64 14.496C25.64 15.2 25.544 16.0747 25.352 17.12C26.4187 14.176 27.6667 12.064 29.096 10.784C30.5253 9.504 32.168 8.864 34.024 8.864C35.5173 8.864 36.6587 9.344 37.448 10.304C38.2587 11.264 38.664 12.608 38.664 14.336C38.664 15.2747 38.5253 16.416 38.248 17.76L36.296 26.912C36.0827 27.9787 35.976 28.896 35.976 29.664C35.976 30.56 36.1787 31.232 36.584 31.68C37.0107 32.128 37.5973 32.352 38.344 32.352C39.048 32.352 39.7307 32.1173 40.392 31.648C41.0747 31.1787 41.8747 30.4 42.792 29.312C43.048 29.0133 43.336 28.864 43.656 28.864C43.9333 28.864 44.1467 28.992 44.296 29.248C44.4667 29.504 44.552 29.856 44.552 30.304C44.552 31.136 44.3493 31.7973 43.944 32.288C42.8347 33.632 41.736 34.6133 40.648 35.232C39.56 35.8507 38.4187 36.16 37.224 36.16C35.4107 36.16 33.992 35.6267 32.968 34.56C31.944 33.472 31.432 32.0213 31.432 30.208C31.432 28.9493 31.688 27.1253 32.2 24.736L33.48 18.88C33.5227 18.688 33.5973 18.3467 33.704 17.856C33.8107 17.3653 33.896 16.9067 33.96 16.48C34.024 16.032 34.056 15.5947 34.056 15.168C34.056 14.4213 33.9067 13.8667 33.608 13.504C33.3307 13.12 32.9253 12.928 32.392 12.928C31.3893 12.928 30.3333 13.5787 29.224 14.88C28.136 16.16 27.0907 18.2933 26.088 21.28C25.1067 24.2667 24.3067 28.1493 23.688 32.928C23.5387 34.208 23.272 35.072 22.888 35.52C22.5253 35.9467 21.928 36.16 21.096 36.16C20.3707 36.16 19.8373 35.9893 19.496 35.648C19.176 35.3067 19.016 34.6667 19.016 33.728C19.016 32.8533 19.1333 31.712 19.368 30.304C19.6027 28.8747 19.9013 27.2 20.264 25.28C21.2453 20.1173 21.736 16.7893 21.736 15.296C21.736 14.4853 21.576 13.888 21.256 13.504C20.9573 13.12 20.4987 12.928 19.88 12.928C18.8347 12.928 17.7573 13.5253 16.648 14.72C15.5387 15.8933 14.4507 17.9947 13.384 21.024C12.3387 24.032 11.464 28.1067 10.76 33.248C10.6107 34.336 10.3867 35.0933 10.088 35.52C9.81067 35.9467 9.256 36.16 8.424 36.16Z" fill="#1E2F42"/>
<path d="M8.424 36.16C7.63467 36.16 7.06933 35.9893 6.728 35.648C6.38667 35.2853 6.216 34.6133 6.216 33.632C6.216 32.9707 6.28 32.128 6.408 31.104C6.55733 30.0587 6.792 28.6293 7.112 26.816C7.66667 23.4667 8.104 20.5653 8.424 18.112C8.616 16.576 8.712 15.296 8.712 14.272C8.712 13.312 8.36 12.832 7.656 12.832C7.10133 12.832 6.42933 13.12 5.64 13.696C4.872 14.2507 4.01867 15.1467 3.08 16.384C2.78133 16.7893 2.45067 16.992 2.088 16.992C1.78933 16.992 1.52267 16.8533 1.288 16.576C1.07467 16.2773 0.968 15.9467 0.968 15.584C0.968 15.2427 1.032 14.9013 1.16 14.56C1.30933 14.1973 1.544 13.792 1.864 13.344C2.888 11.9147 4.02933 10.816 5.288 10.048C6.54667 9.25867 7.80533 8.864 9.064 8.864C10.2373 8.864 11.1333 9.23733 11.752 9.984C12.392 10.7307 12.712 11.8187 12.712 13.248C12.712 13.824 12.6587 14.5067 12.552 15.296C12.4453 16.064 12.3493 16.6933 12.264 17.184C12.1787 17.6747 12.1147 18.016 12.072 18.208C13.288 14.7307 14.6533 12.3093 16.168 10.944C17.6827 9.55733 19.3467 8.864 21.16 8.864C22.5467 8.864 23.6347 9.35467 24.424 10.336C25.2347 11.3173 25.64 12.704 25.64 14.496C25.64 15.2 25.544 16.0747 25.352 17.12C26.4187 14.176 27.6667 12.064 29.096 10.784C30.5253 9.504 32.168 8.864 34.024 8.864C35.5173 8.864 36.6587 9.344 37.448 10.304C38.2587 11.264 38.664 12.608 38.664 14.336C38.664 15.2747 38.5253 16.416 38.248 17.76L36.296 26.912C36.0827 27.9787 35.976 28.896 35.976 29.664C35.976 30.56 36.1787 31.232 36.584 31.68C37.0107 32.128 37.5973 32.352 38.344 32.352C39.048 32.352 39.7307 32.1173 40.392 31.648C41.0747 31.1787 41.8747 30.4 42.792 29.312C43.048 29.0133 43.336 28.864 43.656 28.864C43.9333 28.864 44.1467 28.992 44.296 29.248C44.4667 29.504 44.552 29.856 44.552 30.304C44.552 31.136 44.3493 31.7973 43.944 32.288C42.8347 33.632 41.736 34.6133 40.648 35.232C39.56 35.8507 38.4187 36.16 37.224 36.16C35.4107 36.16 33.992 35.6267 32.968 34.56C31.944 33.472 31.432 32.0213 31.432 30.208C31.432 28.9493 31.688 27.1253 32.2 24.736L33.48 18.88C33.5227 18.688 33.5973 18.3467 33.704 17.856C33.8107 17.3653 33.896 16.9067 33.96 16.48C34.024 16.032 34.056 15.5947 34.056 15.168C34.056 14.4213 33.9067 13.8667 33.608 13.504C33.3307 13.12 32.9253 12.928 32.392 12.928C31.3893 12.928 30.3333 13.5787 29.224 14.88C28.136 16.16 27.0907 18.2933 26.088 21.28C25.1067 24.2667 24.3067 28.1493 23.688 32.928C23.5387 34.208 23.272 35.072 22.888 35.52C22.5253 35.9467 21.928 36.16 21.096 36.16C20.3707 36.16 19.8373 35.9893 19.496 35.648C19.176 35.3067 19.016 34.6667 19.016 33.728C19.016 32.8533 19.1333 31.712 19.368 30.304C19.6027 28.8747 19.9013 27.2 20.264 25.28C21.2453 20.1173 21.736 16.7893 21.736 15.296C21.736 14.4853 21.576 13.888 21.256 13.504C20.9573 13.12 20.4987 12.928 19.88 12.928C18.8347 12.928 17.7573 13.5253 16.648 14.72C15.5387 15.8933 14.4507 17.9947 13.384 21.024C12.3387 24.032 11.464 28.1067 10.76 33.248C10.6107 34.336 10.3867 35.0933 10.088 35.52C9.81067 35.9467 9.256 36.16 8.424 36.16Z" fill="#DB88A7"/>
<path d="M45.9095 36.16C44.5868 36.16 43.5308 35.68 42.7415 34.72C41.9522 33.76 41.5575 32.5013 41.5575 30.944C41.5575 29.2373 41.9522 27.6267 42.7415 26.112C43.5308 24.576 44.5762 23.3493 45.8775 22.432C47.2002 21.4933 48.5975 21.024 50.0695 21.024C50.5388 21.024 50.8482 21.12 50.9975 21.312C51.1682 21.4827 51.3068 21.8027 51.4135 22.272C51.8615 22.1867 52.3308 22.144 52.8215 22.144C53.8668 22.144 54.3895 22.5173 54.3895 23.264C54.3895 23.712 54.2295 24.7787 53.9095 26.464C53.4188 28.9173 53.1735 30.624 53.1735 31.584C53.1735 31.904 53.2482 32.16 53.3975 32.352C53.5682 32.544 53.7815 32.64 54.0375 32.64C54.4428 32.64 54.9335 32.384 55.5095 31.872C56.0855 31.3387 56.8642 30.4853 57.8455 29.312C58.1015 29.0133 58.3895 28.864 58.7095 28.864C58.9868 28.864 59.2002 28.992 59.3495 29.248C59.5202 29.504 59.6055 29.856 59.6055 30.304C59.6055 31.1573 59.4028 31.8187 58.9975 32.288C58.1228 33.376 57.1948 34.2933 56.2135 35.04C55.2322 35.7867 54.2828 36.16 53.3655 36.16C52.6615 36.16 52.0108 35.9253 51.4135 35.456C50.8375 34.9653 50.4002 34.304 50.1015 33.472C48.9922 35.264 47.5948 36.16 45.9095 36.16ZM47.0615 32.928C47.5308 32.928 47.9788 32.6507 48.4055 32.096C48.8322 31.5413 49.1415 30.8053 49.3335 29.888L50.5175 24C49.6215 24.0213 48.7895 24.3627 48.0215 25.024C47.2748 25.664 46.6775 26.5173 46.2295 27.584C45.7815 28.6507 45.5575 29.7813 45.5575 30.976C45.5575 31.6373 45.6855 32.128 45.9415 32.448C46.2188 32.768 46.5922 32.928 47.0615 32.928ZM69.6768 26.24C69.6768 27.9253 69.2821 29.5253 68.4928 31.04C67.7248 32.5333 66.6901 33.7493 65.3888 34.688C64.1088 35.6267 62.7328 36.1173 61.2608 36.16C60.9834 40.2773 60.3541 43.712 59.3728 46.464C58.3914 49.2373 56.9514 50.624 55.0527 50.624C53.9007 50.624 53.0474 50.208 52.4927 49.376C51.9381 48.544 51.6607 47.392 51.6607 45.92C51.6607 43.8293 52.1407 41.3867 53.1007 38.592C54.0607 35.8187 55.5434 32.7573 57.5488 29.408C57.5488 26.2933 57.5274 24.128 57.4848 22.912C57.4634 22.2933 57.7088 21.8027 58.2208 21.44C58.7328 21.0773 59.3728 20.896 60.1408 20.896C60.5888 20.896 60.9088 20.992 61.1008 21.184C61.3141 21.3547 61.4314 21.7067 61.4528 22.24C61.4528 22.7733 61.4634 23.168 61.4848 23.424C62.1674 22.5707 62.8394 21.9627 63.5008 21.6C64.1621 21.216 64.8661 21.024 65.6128 21.024C66.8074 21.024 67.7781 21.504 68.5248 22.464C69.2928 23.424 69.6768 24.6827 69.6768 26.24ZM61.4208 33.088C62.1888 32.9173 62.8928 32.5013 63.5328 31.84C64.1941 31.1573 64.7168 30.3253 65.1008 29.344C65.4848 28.3413 65.6768 27.296 65.6768 26.208C65.6768 25.568 65.5488 25.088 65.2928 24.768C65.0368 24.4267 64.6954 24.256 64.2688 24.256C63.5008 24.256 62.5728 25.0667 61.4848 26.688C61.4634 27.6267 61.4528 29.0027 61.4528 30.816C61.4528 31.7973 61.4421 32.5547 61.4208 33.088ZM55.3087 47.488C55.8848 47.488 56.3648 46.2293 56.7488 43.712C57.1328 41.216 57.3781 38.1013 57.4848 34.368C56.5674 36.5013 55.8421 38.5387 55.3087 40.48C54.7754 42.4213 54.5087 44.0533 54.5087 45.376C54.5087 46.0587 54.5941 46.5813 54.7647 46.944C54.9141 47.3067 55.0954 47.488 55.3087 47.488Z" fill="#1E2F42"/>
</g>
<defs>
<filter id="filter0_i_6_4" x="38.982" y="2.28601" width="44.3984" height="19.804" filterUnits="userSpaceOnUse" color-interpolation-filters="sRGB">
<feFlood flood-opacity="0" result="BackgroundImageFix"/>
<feBlend mode="normal" in="SourceGraphic" in2="BackgroundImageFix" result="shape"/>
<feColorMatrix in="SourceAlpha" type="matrix" values="0 0 0 0 0 0 0 0 0 0 0 0 0 0 0 0 0 0 127 0" result="hardAlpha"/>
<feOffset dy="4"/>
<feGaussianBlur stdDeviation="2"/>
<feComposite in2="hardAlpha" operator="arithmetic" k2="-1" k3="1"/>
<feColorMatrix type="matrix" values="0 0 0 0 0 0 0 0 0 0 0 0 0 0 0 0 0 0 0.1 0"/>
<feBlend mode="normal" in2="shape" result="effect1_innerShadow_6_4"/>
</filter>
<filter id="filter1_i_6_4" x="0.967987" y="8.86401" width="68.7088" height="45.76" filterUnits="userSpaceOnUse" color-interpolation-filters="sRGB">
<feFlood flood-opacity="0" result="BackgroundImageFix"/>
<feBlend mode="normal" in="SourceGraphic" in2="BackgroundImageFix" result="shape"/>
<feColorMatrix in="SourceAlpha" type="matrix" values="0 0 0 0 0 0 0 0 0 0 0 0 0 0 0 0 0 0 127 0" result="hardAlpha"/>
<feOffset dy="4"/>
<feGaussianBlur stdDeviation="2"/>
<feComposite in2="hardAlpha" operator="arithmetic" k2="-1" k3="1"/>
<feColorMatrix type="matrix" values="0 0 0 0 0 0 0 0 0 0 0 0 0 0 0 0 0 0 0.1 0"/>
<feBlend mode="normal" in2="shape" result="effect1_innerShadow_6_4"/>
</filter>
</defs>
</svg>
