<svg width="128" height="129" viewBox="0 0 128 129" fill="none" xmlns="http://www.w3.org/2000/svg">
<path d="M0 20.5C0 9.45431 8.95431 0.5 20 0.5H108C119.046 0.5 128 9.45431 128 20.5V108.5C128 119.546 119.046 128.5 108 128.5H20C8.95431 128.5 0 119.546 0 108.5V20.5Z" fill="#FBF6F6"/>
<mask id="path-2-inside-1_11_44" fill="white">
<path fill-rule="evenodd" clip-rule="evenodd" d="M125.326 10.5036C82.7177 7.24687 68.073 12.1714 55.6905 16.3353C43.3778 20.4756 33.3017 23.8639 0.193237 17.7087C1.55118 7.98436 9.90156 0.5 20 0.5H108C115.404 0.5 121.869 4.52359 125.326 10.5036Z"/>
</mask>
<path fill-rule="evenodd" clip-rule="evenodd" d="M125.326 10.5036C82.7177 7.24687 68.073 12.1714 55.6905 16.3353C43.3778 20.4756 33.3017 23.8639 0.193237 17.7087C1.55118 7.98436 9.90156 0.5 20 0.5H108C115.404 0.5 121.869 4.52359 125.326 10.5036Z" fill="#DB88A7"/>
<path d="M125.326 10.5036L125.25 11.5007L127.142 11.6452L126.192 10.003L125.326 10.5036ZM55.6905 16.3353L55.3717 15.3874L55.6905 16.3353ZM0.193237 17.7087L-0.797153 17.5704L-0.929359 18.5172L0.0104598 18.6919L0.193237 17.7087ZM125.403 9.50647C104.054 7.87475 89.6692 8.28911 79.0471 9.64476C68.4109 11.0022 61.5782 13.3004 55.3717 15.3874L56.0092 17.2831C62.1853 15.2063 68.8662 12.9603 79.3002 11.6287C89.7482 10.2953 103.99 9.87569 125.25 11.5007L125.403 9.50647ZM55.3717 15.3874C49.2222 17.4553 43.7284 19.3001 35.6679 19.8855C27.5895 20.4721 16.8865 19.795 0.376015 16.7256L0.0104598 18.6919C16.6085 21.7776 27.4977 22.484 35.8127 21.8802C44.1454 21.2751 49.8461 19.3556 56.0092 17.2831L55.3717 15.3874ZM1.18363 17.847C2.47354 8.60984 10.4073 1.5 20 1.5V-0.5C9.3958 -0.5 0.628825 7.35889 -0.797153 17.5704L1.18363 17.847ZM20 1.5H108V-0.5H20V1.5ZM108 1.5C115.033 1.5 121.174 5.32052 124.461 11.0041L126.192 10.003C122.563 3.72665 115.776 -0.5 108 -0.5V1.5Z" fill="#DB88A7" mask="url(#path-2-inside-1_11_44)"/>
<mask id="path-4-inside-2_11_44" fill="white">
<path fill-rule="evenodd" clip-rule="evenodd" d="M128 108.003V108.5C128 119.546 119.046 128.5 108 128.5H20C8.95431 128.5 0 119.546 0 108.5V105.372C27.7079 103.642 49.7446 106.924 68.6159 109.735C91.5966 113.157 109.883 115.88 128 108.003Z"/>
</mask>
<path fill-rule="evenodd" clip-rule="evenodd" d="M128 108.003V108.5C128 119.546 119.046 128.5 108 128.5H20C8.95431 128.5 0 119.546 0 108.5V105.372C27.7079 103.642 49.7446 106.924 68.6159 109.735C91.5966 113.157 109.883 115.88 128 108.003Z" fill="#4096C2"/>
<path d="M128 108.003H129V106.478L127.601 107.086L128 108.003ZM0 105.372L-0.0622968 104.374L-1 104.432V105.372H0ZM68.6159 109.735L68.7632 108.745L68.7632 108.745L68.6159 109.735ZM127 108.003V108.5H129V108.003H127ZM127 108.5C127 118.993 118.493 127.5 108 127.5V129.5C119.598 129.5 129 120.098 129 108.5H127ZM108 127.5H20V129.5H108V127.5ZM20 127.5C9.50659 127.5 1 118.993 1 108.5H-1C-1 120.098 8.40202 129.5 20 129.5V127.5ZM1 108.5V105.372H-1V108.5H1ZM68.7632 108.745C49.8882 105.934 27.7601 102.637 -0.0622968 104.374L0.0622968 106.37C27.6557 104.647 49.6011 107.914 68.4686 110.724L68.7632 108.745ZM127.601 107.086C109.793 114.829 91.805 112.177 68.7632 108.745L68.4686 110.724C91.3882 114.137 109.974 116.931 128.399 108.921L127.601 107.086Z" fill="#4096C2" mask="url(#path-4-inside-2_11_44)"/>
<g filter="url(#filter0_di_11_44)">
<path d="M84.8964 58.2227C84.0559 58.2227 83.454 58.04 83.0905 57.6746C82.7271 57.2863 82.5454 56.5669 82.5454 55.5163C82.5454 54.8083 82.6135 53.9061 82.7498 52.8099C82.9088 51.6907 83.1587 50.1605 83.4994 48.2192C84.09 44.6334 84.5556 41.5273 84.8964 38.9008C85.1008 37.2564 85.203 35.886 85.203 34.7897C85.203 33.762 84.8282 33.2481 84.0786 33.2481C83.488 33.2481 82.7725 33.5564 81.9321 34.1731C81.1143 34.7669 80.2057 35.7261 79.2062 37.0508C78.8882 37.4848 78.5362 37.7017 78.15 37.7017C77.832 37.7017 77.548 37.5533 77.2982 37.2564C77.071 36.9366 76.9575 36.5826 76.9575 36.1943C76.9575 35.8289 77.0256 35.4635 77.1619 35.0981C77.3209 34.7098 77.5708 34.2759 77.9115 33.7962C79.0018 32.266 80.2171 31.0898 81.5573 30.2676C82.8974 29.4225 84.2376 29 85.5778 29C86.8271 29 87.7812 29.3997 88.4399 30.1991C89.1214 30.9984 89.4621 32.1632 89.4621 33.6935C89.4621 34.3101 89.4053 35.041 89.2917 35.886C89.1781 36.7082 89.0759 37.382 88.9851 37.9073C88.8942 38.4326 88.8261 38.798 88.7806 39.0036C90.0754 35.2808 91.5292 32.6885 93.1419 31.2268C94.7547 29.7423 96.5265 29 98.4572 29C99.9337 29 101.092 29.5253 101.933 30.5759C102.796 31.6265 103.227 33.1111 103.227 35.0295C103.227 35.7832 103.125 36.7196 102.921 37.8388C104.056 34.687 105.385 32.4259 106.907 31.0555C108.429 29.6852 110.178 29 112.154 29C113.744 29 114.96 29.5139 115.8 30.5416C116.663 31.5694 117.095 33.0083 117.095 34.8583C117.095 35.8632 116.947 37.0851 116.652 38.5239L114.574 48.3219C114.346 49.4639 114.233 50.446 114.233 51.2682C114.233 52.2275 114.449 52.9469 114.88 53.4265C115.334 53.9061 115.959 54.1459 116.754 54.1459C117.504 54.1459 118.231 53.8947 118.935 53.3922C119.662 52.8898 120.514 52.0562 121.49 50.8914C121.763 50.5716 122.069 50.4117 122.41 50.4117C122.706 50.4117 122.933 50.5488 123.092 50.8228C123.273 51.0969 123.364 51.4738 123.364 51.9534C123.364 52.8441 123.148 53.5521 122.717 54.0774C121.536 55.5163 120.366 56.5669 119.207 57.2292C118.049 57.8916 116.834 58.2227 115.562 58.2227C113.631 58.2227 112.12 57.6518 111.03 56.5098C109.94 55.345 109.395 53.7919 109.395 51.8506C109.395 50.5031 109.667 48.5503 110.212 45.9924L111.575 39.723C111.621 39.5174 111.7 39.152 111.814 38.6267C111.927 38.1014 112.018 37.6104 112.086 37.1536C112.154 36.674 112.188 36.2058 112.188 35.749C112.188 34.9496 112.029 34.3558 111.711 33.9675C111.416 33.5564 110.985 33.3509 110.417 33.3509C109.349 33.3509 108.225 34.0475 107.044 35.4406C105.885 36.811 104.772 39.0949 103.704 42.2924C102.66 45.4899 101.808 49.6466 101.149 54.7626C100.99 56.1329 100.706 57.0579 100.297 57.5376C99.911 57.9943 99.275 58.2227 98.3891 58.2227C97.6168 58.2227 97.0489 58.04 96.6855 57.6746C96.3447 57.3092 96.1744 56.624 96.1744 55.6191C96.1744 54.6827 96.2993 53.4608 96.5492 51.9534C96.799 50.4232 97.117 48.6303 97.5032 46.5748C98.5481 41.0477 99.0705 37.4848 99.0705 35.886C99.0705 35.0181 98.9002 34.3786 98.5594 33.9675C98.2414 33.5564 97.7531 33.3509 97.0943 33.3509C95.9813 33.3509 94.8342 33.9904 93.653 35.2694C92.4718 36.5255 91.3134 38.7752 90.1776 42.0183C89.0646 45.2387 88.1333 49.6009 87.3837 55.1052C87.2247 56.27 86.9861 57.0808 86.6681 57.5376C86.3728 57.9943 85.7822 58.2227 84.8964 58.2227Z" fill="#4096C2"/>
</g>
<g filter="url(#filter1_di_11_44)">
<path d="M19.1136 92.6147C17.6195 92.6147 16.5493 92.2898 15.9032 91.6403C15.2571 90.9499 14.934 89.671 14.934 87.8033C14.934 86.5446 15.0552 84.9408 15.2975 82.9918C15.5801 81.0023 16.0244 78.2818 16.6301 74.8306C17.68 68.456 18.5079 62.9339 19.1136 58.2646C19.477 55.3412 19.6588 52.905 19.6588 50.9561C19.6588 49.1289 18.9925 48.2154 17.6598 48.2154C16.6099 48.2154 15.3379 48.7635 13.8437 49.8598C12.39 50.9155 10.7747 52.6209 8.99784 54.9758C8.43249 55.7472 7.80657 56.1329 7.12007 56.1329C6.55471 56.1329 6.04995 55.869 5.60573 55.3412C5.20192 54.7727 5 54.1435 5 53.4531C5 52.8036 5.12115 52.1538 5.36344 51.5042C5.64611 50.8139 6.09032 50.0425 6.69606 49.1898C8.6344 46.4695 10.7948 44.3784 13.1774 42.9167C15.56 41.4144 17.9425 40.6632 20.3251 40.6632C22.546 40.6632 24.2421 41.3738 25.4132 42.7949C26.6247 44.216 27.2304 46.2868 27.2304 49.0071C27.2304 50.1034 27.1295 51.4028 26.9276 52.905C26.7256 54.3667 26.5439 55.5644 26.3824 56.4984C26.2209 57.4323 26.0998 58.0819 26.019 58.4473C28.3208 51.8291 30.9052 47.2205 33.7724 44.622C36.6396 41.9828 39.7894 40.6632 43.2218 40.6632C45.8467 40.6632 47.9062 41.5971 49.4003 43.4648C50.9349 45.3325 51.7021 47.9717 51.7021 51.3824C51.7021 52.7223 51.5204 54.3871 51.1569 56.3766C53.1761 50.7734 55.5385 46.7537 58.244 44.3175C60.9496 41.8813 64.0591 40.6632 67.5723 40.6632C70.399 40.6632 72.5596 41.5768 74.0537 43.4039C75.5883 45.231 76.3555 47.789 76.3555 51.0779C76.3555 52.8645 76.0929 55.0367 75.568 57.5947L71.873 75.0133C71.4693 77.0436 71.2673 78.7894 71.2673 80.2511C71.2673 81.9564 71.651 83.2354 72.4182 84.0881C73.2259 84.9408 74.3363 85.3671 75.7497 85.3671C77.0824 85.3671 78.3746 84.9204 79.6264 84.0272C80.9187 83.134 82.4331 81.6519 84.1694 79.5812C84.654 79.0127 85.1992 78.7285 85.8049 78.7285C86.3298 78.7285 86.7338 78.9721 87.0164 79.4594C87.3395 79.9466 87.501 80.6166 87.501 81.4692C87.501 83.0527 87.1173 84.3114 86.3501 85.2453C84.2503 87.8033 82.1705 89.6709 80.111 90.8485C78.0515 92.026 75.8911 92.6147 73.6297 92.6147C70.1972 92.6147 67.5117 91.5997 65.5734 89.5695C63.635 87.4988 62.6659 84.7377 62.6659 81.2865C62.6659 78.8909 63.1505 75.4193 64.1196 70.8718L66.5426 59.7263C66.6234 59.3609 66.7646 58.7113 66.9666 57.7774C67.1686 56.8434 67.33 55.9706 67.4512 55.1585C67.5723 54.3058 67.6329 53.4735 67.6329 52.6614C67.6329 51.2402 67.3503 50.1847 66.7849 49.4944C66.26 48.7635 65.4926 48.3981 64.4831 48.3981C62.585 48.3981 60.5861 49.6365 58.4863 52.1133C56.4268 54.5494 54.4481 58.6097 52.5501 64.2941C50.6926 69.9786 49.1783 77.3682 48.0071 86.4634C47.7245 88.8996 47.2197 90.544 46.4928 91.3966C45.8062 92.2088 44.6756 92.6147 43.1007 92.6147C41.7277 92.6147 40.7181 92.2898 40.072 91.6403C39.4663 90.9907 39.1634 89.7726 39.1634 87.986C39.1634 86.3212 39.3854 84.149 39.8297 81.4692C40.274 78.7489 40.8392 75.5615 41.5258 71.9072C43.3833 62.0812 44.3121 55.7472 44.3121 52.905C44.3121 51.362 44.0093 50.2252 43.4035 49.4944C42.8381 48.7635 41.97 48.3981 40.7989 48.3981C38.8202 48.3981 36.7808 49.5349 34.681 51.8087C32.5812 54.0418 30.5217 58.0414 28.5025 63.8069C26.5238 69.5319 24.8681 77.2872 23.5355 87.0724C23.2528 89.1432 22.8288 90.5845 22.2634 91.3966C21.7385 92.2088 20.6885 92.6147 19.1136 92.6147Z" fill="#1E2F42"/>
<path d="M19.1136 92.6147C17.6195 92.6147 16.5493 92.2898 15.9032 91.6403C15.2571 90.9499 14.934 89.671 14.934 87.8033C14.934 86.5446 15.0552 84.9408 15.2975 82.9918C15.5801 81.0023 16.0244 78.2818 16.6301 74.8306C17.68 68.456 18.5079 62.9339 19.1136 58.2646C19.477 55.3412 19.6588 52.905 19.6588 50.9561C19.6588 49.1289 18.9925 48.2154 17.6598 48.2154C16.6099 48.2154 15.3379 48.7635 13.8437 49.8598C12.39 50.9155 10.7747 52.6209 8.99784 54.9758C8.43249 55.7472 7.80657 56.1329 7.12007 56.1329C6.55471 56.1329 6.04995 55.869 5.60573 55.3412C5.20192 54.7727 5 54.1435 5 53.4531C5 52.8036 5.12115 52.1538 5.36344 51.5042C5.64611 50.8139 6.09032 50.0425 6.69606 49.1898C8.6344 46.4695 10.7948 44.3784 13.1774 42.9167C15.56 41.4144 17.9425 40.6632 20.3251 40.6632C22.546 40.6632 24.2421 41.3738 25.4132 42.7949C26.6247 44.216 27.2304 46.2868 27.2304 49.0071C27.2304 50.1034 27.1295 51.4028 26.9276 52.905C26.7256 54.3667 26.5439 55.5644 26.3824 56.4984C26.2209 57.4323 26.0998 58.0819 26.019 58.4473C28.3208 51.8291 30.9052 47.2205 33.7724 44.622C36.6396 41.9828 39.7894 40.6632 43.2218 40.6632C45.8467 40.6632 47.9062 41.5971 49.4003 43.4648C50.9349 45.3325 51.7021 47.9717 51.7021 51.3824C51.7021 52.7223 51.5204 54.3871 51.1569 56.3766C53.1761 50.7734 55.5385 46.7537 58.244 44.3175C60.9496 41.8813 64.0591 40.6632 67.5723 40.6632C70.399 40.6632 72.5596 41.5768 74.0537 43.4039C75.5883 45.231 76.3555 47.789 76.3555 51.0779C76.3555 52.8645 76.0929 55.0367 75.568 57.5947L71.873 75.0133C71.4693 77.0436 71.2673 78.7894 71.2673 80.2511C71.2673 81.9564 71.651 83.2354 72.4182 84.0881C73.2259 84.9408 74.3363 85.3671 75.7497 85.3671C77.0824 85.3671 78.3746 84.9204 79.6264 84.0272C80.9187 83.134 82.4331 81.6519 84.1694 79.5812C84.654 79.0127 85.1992 78.7285 85.8049 78.7285C86.3298 78.7285 86.7338 78.9721 87.0164 79.4594C87.3395 79.9466 87.501 80.6166 87.501 81.4692C87.501 83.0527 87.1173 84.3114 86.3501 85.2453C84.2503 87.8033 82.1705 89.6709 80.111 90.8485C78.0515 92.026 75.8911 92.6147 73.6297 92.6147C70.1972 92.6147 67.5117 91.5997 65.5734 89.5695C63.635 87.4988 62.6659 84.7377 62.6659 81.2865C62.6659 78.8909 63.1505 75.4193 64.1196 70.8718L66.5426 59.7263C66.6234 59.3609 66.7646 58.7113 66.9666 57.7774C67.1686 56.8434 67.33 55.9706 67.4512 55.1585C67.5723 54.3058 67.6329 53.4735 67.6329 52.6614C67.6329 51.2402 67.3503 50.1847 66.7849 49.4944C66.26 48.7635 65.4926 48.3981 64.4831 48.3981C62.585 48.3981 60.5861 49.6365 58.4863 52.1133C56.4268 54.5494 54.4481 58.6097 52.5501 64.2941C50.6926 69.9786 49.1783 77.3682 48.0071 86.4634C47.7245 88.8996 47.2197 90.544 46.4928 91.3966C45.8062 92.2088 44.6756 92.6147 43.1007 92.6147C41.7277 92.6147 40.7181 92.2898 40.072 91.6403C39.4663 90.9907 39.1634 89.7726 39.1634 87.986C39.1634 86.3212 39.3854 84.149 39.8297 81.4692C40.274 78.7489 40.8392 75.5615 41.5258 71.9072C43.3833 62.0812 44.3121 55.7472 44.3121 52.905C44.3121 51.362 44.0093 50.2252 43.4035 49.4944C42.8381 48.7635 41.97 48.3981 40.7989 48.3981C38.8202 48.3981 36.7808 49.5349 34.681 51.8087C32.5812 54.0418 30.5217 58.0414 28.5025 63.8069C26.5238 69.5319 24.8681 77.2872 23.5355 87.0724C23.2528 89.1432 22.8288 90.5845 22.2634 91.3966C21.7385 92.2088 20.6885 92.6147 19.1136 92.6147Z" fill="#DB88A7"/>
</g>
<defs>
<filter id="filter0_di_11_44" x="72.9575" y="29" width="54.4068" height="37.2227" filterUnits="userSpaceOnUse" color-interpolation-filters="sRGB">
<feFlood flood-opacity="0" result="BackgroundImageFix"/>
<feColorMatrix in="SourceAlpha" type="matrix" values="0 0 0 0 0 0 0 0 0 0 0 0 0 0 0 0 0 0 127 0" result="hardAlpha"/>
<feOffset dy="4"/>
<feGaussianBlur stdDeviation="2"/>
<feComposite in2="hardAlpha" operator="out"/>
<feColorMatrix type="matrix" values="0 0 0 0 0 0 0 0 0 0 0 0 0 0 0 0 0 0 0.25 0"/>
<feBlend mode="normal" in2="BackgroundImageFix" result="effect1_dropShadow_11_44"/>
<feBlend mode="normal" in="SourceGraphic" in2="effect1_dropShadow_11_44" result="shape"/>
<feColorMatrix in="SourceAlpha" type="matrix" values="0 0 0 0 0 0 0 0 0 0 0 0 0 0 0 0 0 0 127 0" result="hardAlpha"/>
<feOffset dy="4"/>
<feGaussianBlur stdDeviation="2"/>
<feComposite in2="hardAlpha" operator="arithmetic" k2="-1" k3="1"/>
<feColorMatrix type="matrix" values="0 0 0 0 0 0 0 0 0 0 0 0 0 0 0 0 0 0 0.1 0"/>
<feBlend mode="normal" in2="shape" result="effect2_innerShadow_11_44"/>
</filter>
<filter id="filter1_di_11_44" x="1" y="40.6632" width="90.501" height="59.9515" filterUnits="userSpaceOnUse" color-interpolation-filters="sRGB">
<feFlood flood-opacity="0" result="BackgroundImageFix"/>
<feColorMatrix in="SourceAlpha" type="matrix" values="0 0 0 0 0 0 0 0 0 0 0 0 0 0 0 0 0 0 127 0" result="hardAlpha"/>
<feOffset dy="4"/>
<feGaussianBlur stdDeviation="2"/>
<feComposite in2="hardAlpha" operator="out"/>
<feColorMatrix type="matrix" values="0 0 0 0 0 0 0 0 0 0 0 0 0 0 0 0 0 0 0.25 0"/>
<feBlend mode="normal" in2="BackgroundImageFix" result="effect1_dropShadow_11_44"/>
<feBlend mode="normal" in="SourceGraphic" in2="effect1_dropShadow_11_44" result="shape"/>
<feColorMatrix in="SourceAlpha" type="matrix" values="0 0 0 0 0 0 0 0 0 0 0 0 0 0 0 0 0 0 127 0" result="hardAlpha"/>
<feOffset dy="4"/>
<feGaussianBlur stdDeviation="2"/>
<feComposite in2="hardAlpha" operator="arithmetic" k2="-1" k3="1"/>
<feColorMatrix type="matrix" values="0 0 0 0 0 0 0 0 0 0 0 0 0 0 0 0 0 0 0.1 0"/>
<feBlend mode="normal" in2="shape" result="effect2_innerShadow_11_44"/>
</filter>
</defs>
</svg>
