<svg width="150" height="187" viewBox="0 0 150 187" fill="none" xmlns="http://www.w3.org/2000/svg">
<path d="M8 53.5C8 42.4543 16.9543 33.5 28 33.5H116C127.046 33.5 136 42.4543 136 53.5V141.5C136 152.546 127.046 161.5 116 161.5H28C16.9543 161.5 8 152.546 8 141.5V53.5Z" fill="#FBF6F6"/>
<mask id="path-2-inside-1_6_35" fill="white">
<path fill-rule="evenodd" clip-rule="evenodd" d="M133.326 43.5036C90.7177 40.2469 76.073 45.1714 63.6905 49.3353C51.3778 53.4756 41.3017 56.8639 8.19324 50.7087C9.55118 40.9844 17.9016 33.5 28 33.5H116C123.404 33.5 129.869 37.5236 133.326 43.5036Z"/>
</mask>
<path fill-rule="evenodd" clip-rule="evenodd" d="M133.326 43.5036C90.7177 40.2469 76.073 45.1714 63.6905 49.3353C51.3778 53.4756 41.3017 56.8639 8.19324 50.7087C9.55118 40.9844 17.9016 33.5 28 33.5H116C123.404 33.5 129.869 37.5236 133.326 43.5036Z" fill="#DB88A7"/>
<path d="M133.326 43.5036L133.25 44.5007L135.142 44.6452L134.192 43.003L133.326 43.5036ZM63.6905 49.3353L63.3717 48.3874L63.6905 49.3353ZM8.19324 50.7087L7.20285 50.5704L7.07064 51.5172L8.01046 51.6919L8.19324 50.7087ZM133.403 42.5065C112.054 40.8747 97.6692 41.2891 87.0471 42.6448C76.4109 44.0022 69.5782 46.3004 63.3717 48.3874L64.0092 50.2831C70.1853 48.2063 76.8662 45.9603 87.3002 44.6287C97.7482 43.2953 111.99 42.8757 133.25 44.5007L133.403 42.5065ZM63.3717 48.3874C57.2222 50.4553 51.7284 52.3001 43.6679 52.8855C35.5895 53.4721 24.8865 52.795 8.37602 49.7256L8.01046 51.6919C24.6085 54.7776 35.4977 55.484 43.8127 54.8802C52.1454 54.2751 57.8461 52.3556 64.0092 50.2831L63.3717 48.3874ZM9.18363 50.847C10.4735 41.6098 18.4073 34.5 28 34.5V32.5C17.3958 32.5 8.62883 40.3589 7.20285 50.5704L9.18363 50.847ZM28 34.5H116V32.5H28V34.5ZM116 34.5C123.033 34.5 129.174 38.3205 132.461 44.0041L134.192 43.003C130.563 36.7266 123.776 32.5 116 32.5V34.5Z" fill="#DB88A7" mask="url(#path-2-inside-1_6_35)"/>
<mask id="path-4-inside-2_6_35" fill="white">
<path fill-rule="evenodd" clip-rule="evenodd" d="M136 141.003V141.5C136 152.546 127.046 161.5 116 161.5H28C16.9543 161.5 8 152.546 8 141.5V138.372C35.7079 136.642 57.7446 139.924 76.6159 142.735C99.5966 146.157 117.883 148.88 136 141.003Z"/>
</mask>
<path fill-rule="evenodd" clip-rule="evenodd" d="M136 141.003V141.5C136 152.546 127.046 161.5 116 161.5H28C16.9543 161.5 8 152.546 8 141.5V138.372C35.7079 136.642 57.7446 139.924 76.6159 142.735C99.5966 146.157 117.883 148.88 136 141.003Z" fill="#4096C2"/>
<path d="M136 141.003H137V139.478L135.601 140.086L136 141.003ZM8 138.372L7.9377 137.374L7 137.432V138.372H8ZM76.6159 142.735L76.7632 141.745L76.7632 141.745L76.6159 142.735ZM135 141.003V141.5H137V141.003H135ZM135 141.5C135 151.993 126.493 160.5 116 160.5V162.5C127.598 162.5 137 153.098 137 141.5H135ZM116 160.5H28V162.5H116V160.5ZM28 160.5C17.5066 160.5 9 151.993 9 141.5H7C7 153.098 16.402 162.5 28 162.5V160.5ZM9 141.5V138.372H7V141.5H9ZM76.7632 141.745C57.8882 138.934 35.7601 135.637 7.9377 137.374L8.0623 139.37C35.6557 137.647 57.6011 140.914 76.4686 143.724L76.7632 141.745ZM135.601 140.086C117.793 147.829 99.805 145.177 76.7632 141.745L76.4686 143.724C99.3882 147.137 117.974 149.931 136.399 141.921L135.601 140.086Z" fill="#4096C2" mask="url(#path-4-inside-2_6_35)"/>
<g filter="url(#filter0_di_6_35)">
<path d="M73.998 88.5559C73.4324 88.5559 73.0274 88.4336 72.7828 88.1889C72.5382 87.9289 72.4159 87.4471 72.4159 86.7436C72.4159 86.2695 72.4618 85.6654 72.5535 84.9312C72.6605 84.1818 72.8286 83.1571 73.0579 81.8571C73.4554 79.4559 73.7687 77.3759 73.998 75.6171C74.1356 74.5159 74.2044 73.5983 74.2044 72.8642C74.2044 72.1759 73.9521 71.8318 73.4477 71.8318C73.0503 71.8318 72.5688 72.0383 72.0032 72.4512C71.4529 72.8489 70.8415 73.4912 70.1689 74.3783C69.9549 74.6689 69.718 74.8142 69.4581 74.8142C69.2441 74.8142 69.0531 74.7148 68.8849 74.5159C68.7321 74.3018 68.6556 74.0648 68.6556 73.8048C68.6556 73.5601 68.7015 73.3154 68.7932 73.0707C68.9002 72.8107 69.0684 72.5201 69.2976 72.1989C70.0314 71.1742 70.8491 70.3865 71.751 69.8359C72.6529 69.2701 73.5547 68.9871 74.4566 68.9871C75.2973 68.9871 75.9393 69.2548 76.3826 69.7901C76.8411 70.3254 77.0704 71.1054 77.0704 72.1301C77.0704 72.543 77.0322 73.0324 76.9558 73.5983C76.8794 74.1489 76.8106 74.6001 76.7494 74.9518C76.6883 75.3036 76.6424 75.5483 76.6119 75.6859C77.4831 73.193 78.4614 71.4571 79.5467 70.4783C80.632 69.4842 81.8243 68.9871 83.1236 68.9871C84.1171 68.9871 84.8967 69.3389 85.4623 70.0424C86.0431 70.7459 86.3336 71.7401 86.3336 73.0248C86.3336 73.5295 86.2648 74.1565 86.1272 74.9059C86.8915 72.7954 87.7857 71.2812 88.8099 70.3636C89.834 69.4459 91.011 68.9871 92.3409 68.9871C93.4109 68.9871 94.2286 69.3312 94.7942 70.0195C95.3751 70.7077 95.6655 71.6712 95.6655 72.9101C95.6655 73.583 95.5661 74.4012 95.3674 75.3648L93.9688 81.9259C93.8159 82.6907 93.7395 83.3483 93.7395 83.8989C93.7395 84.5412 93.8847 85.023 94.1751 85.3442C94.4809 85.6654 94.9012 85.8259 95.4362 85.8259C95.9406 85.8259 96.4298 85.6577 96.9036 85.3212C97.3928 84.9848 97.966 84.4265 98.6233 83.6465C98.8067 83.4324 99.0131 83.3254 99.2424 83.3254C99.4411 83.3254 99.5939 83.4171 99.7009 83.6007C99.8232 83.7842 99.8844 84.0365 99.8844 84.3577C99.8844 84.9542 99.7391 85.4283 99.4487 85.7801C98.6539 86.7436 97.8666 87.4471 97.0871 87.8907C96.3075 88.3342 95.4897 88.5559 94.6337 88.5559C93.3344 88.5559 92.3179 88.1736 91.5842 87.4089C90.8505 86.6289 90.4836 85.5889 90.4836 84.2889C90.4836 83.3865 90.6671 82.0789 91.0339 80.3659L91.9511 76.1677C91.9816 76.0301 92.0351 75.7854 92.1116 75.4336C92.188 75.0818 92.2491 74.753 92.295 74.4471C92.3409 74.1259 92.3638 73.8124 92.3638 73.5065C92.3638 72.9712 92.2568 72.5736 92.0428 72.3136C91.8441 72.0383 91.5536 71.9007 91.1715 71.9007C90.4531 71.9007 89.6964 72.3671 88.9016 73.3001C88.122 74.2177 87.373 75.7471 86.6546 77.8883C85.9514 80.0295 85.3782 82.813 84.9349 86.2389C84.8279 87.1565 84.6369 87.7759 84.3617 88.0971C84.1019 88.403 83.6739 88.5559 83.0777 88.5559C82.558 88.5559 82.1759 88.4336 81.9313 88.1889C81.702 87.9442 81.5874 87.4854 81.5874 86.8124C81.5874 86.1854 81.6714 85.3671 81.8396 84.3577C82.0077 83.333 82.2217 82.1324 82.4816 80.7559C83.1847 77.0548 83.5363 74.6689 83.5363 73.5983C83.5363 73.0171 83.4216 72.5889 83.1924 72.3136C82.9784 72.0383 82.6497 71.9007 82.2064 71.9007C81.4574 71.9007 80.6855 72.3289 79.8906 73.1854C79.0958 74.0265 78.3162 75.533 77.5519 77.7048C76.8029 79.8612 76.1762 82.7824 75.6718 86.4683C75.5648 87.2483 75.4043 87.7912 75.1903 88.0971C74.9916 88.403 74.5941 88.5559 73.998 88.5559Z" fill="#4096C2"/>
<path d="M108.263 83.3253C108.462 83.3253 108.615 83.4171 108.722 83.6006C108.844 83.7842 108.905 84.0365 108.905 84.3577C108.905 84.9695 108.76 85.4436 108.469 85.78C107.904 86.4683 107.101 87.103 106.062 87.6842C105.038 88.2653 103.937 88.5559 102.76 88.5559C101.155 88.5559 99.9093 88.12 99.0228 87.2483C98.1362 86.3765 97.6929 85.1836 97.6929 83.6695C97.6929 82.6142 97.9145 81.6353 98.3578 80.733C98.8011 79.8153 99.4125 79.0889 100.192 78.5536C100.987 78.0183 101.881 77.7506 102.875 77.7506C103.761 77.7506 104.472 78.0183 105.007 78.5536C105.542 79.0736 105.81 79.7847 105.81 80.6871C105.81 81.7424 105.427 82.6524 104.663 83.4171C103.914 84.1665 102.638 84.763 100.834 85.2065C101.216 85.91 101.942 86.2618 103.012 86.2618C103.7 86.2618 104.48 86.0247 105.351 85.5506C106.238 85.0612 107.002 84.4265 107.644 83.6465C107.827 83.4324 108.034 83.3253 108.263 83.3253ZM102.485 79.9989C101.919 79.9989 101.438 80.3277 101.04 80.9853C100.658 81.643 100.467 82.4383 100.467 83.3712V83.4171C101.369 83.203 102.08 82.8818 102.6 82.4536C103.119 82.0253 103.379 81.5283 103.379 80.9624C103.379 80.6718 103.295 80.4424 103.127 80.2742C102.974 80.0906 102.76 79.9989 102.485 79.9989ZM117.264 83.3253C117.463 83.3253 117.616 83.4171 117.723 83.6006C117.845 83.7842 117.906 84.0365 117.906 84.3577C117.906 84.9695 117.761 85.4436 117.471 85.78C116.905 86.4683 116.103 87.103 115.063 87.6842C114.039 88.2653 112.938 88.5559 111.761 88.5559C110.156 88.5559 108.911 88.12 108.024 87.2483C107.137 86.3765 106.694 85.1836 106.694 83.6695C106.694 82.6142 106.916 81.6353 107.359 80.733C107.802 79.8153 108.414 79.0889 109.193 78.5536C109.988 78.0183 110.882 77.7506 111.876 77.7506C112.763 77.7506 113.473 78.0183 114.008 78.5536C114.543 79.0736 114.811 79.7847 114.811 80.6871C114.811 81.7424 114.429 82.6524 113.664 83.4171C112.915 84.1665 111.639 84.763 109.835 85.2065C110.218 85.91 110.944 86.2618 112.014 86.2618C112.701 86.2618 113.481 86.0247 114.352 85.5506C115.239 85.0612 116.003 84.4265 116.645 83.6465C116.829 83.4324 117.035 83.3253 117.264 83.3253ZM111.486 79.9989C110.921 79.9989 110.439 80.3277 110.042 80.9853C109.66 81.643 109.469 82.4383 109.469 83.3712V83.4171C110.37 83.203 111.081 82.8818 111.601 82.4536C112.121 82.0253 112.38 81.5283 112.38 80.9624C112.38 80.6718 112.296 80.4424 112.128 80.2742C111.975 80.0906 111.761 79.9989 111.486 79.9989ZM119.823 79.93C119.792 80.6947 119.777 81.2912 119.777 81.7195C119.777 82.8206 119.83 83.6847 119.937 84.3118C120.059 84.9236 120.251 85.3671 120.51 85.6424C120.786 85.9024 121.16 86.0324 121.634 86.0324C121.878 86.0324 122.169 85.9559 122.505 85.803C122.841 85.65 123.147 85.4512 123.422 85.2065C123.59 85.0536 123.759 84.9771 123.927 84.9771C124.11 84.9771 124.255 85.0842 124.362 85.2983C124.485 85.4971 124.546 85.7418 124.546 86.0324C124.546 86.323 124.485 86.6059 124.362 86.8812C124.255 87.1565 124.087 87.3859 123.858 87.5695C123.063 88.2271 122.161 88.5559 121.152 88.5559C119.7 88.5559 118.638 87.9518 117.965 86.7436C117.293 85.52 116.956 83.9295 116.956 81.9718C116.956 81.2989 116.979 80.6183 117.025 79.93H116.131C115.672 79.93 115.359 79.8459 115.191 79.6777C115.038 79.5095 114.962 79.2418 114.962 78.8748C114.962 78.0183 115.306 77.59 115.993 77.59H117.3C117.56 75.9077 117.958 74.3706 118.493 72.9789C119.028 71.5871 119.67 70.4783 120.419 69.6524C121.183 68.8265 122.001 68.4136 122.872 68.4136C123.514 68.4136 124.018 68.6965 124.385 69.2624C124.752 69.8283 124.936 70.5395 124.936 71.3959C124.936 73.7665 123.942 75.8312 121.955 77.59H124.523C124.767 77.59 124.943 77.6436 125.05 77.7506C125.157 77.8577 125.211 78.0565 125.211 78.3471C125.211 79.4024 124.347 79.93 122.62 79.93H119.823ZM122.253 70.6159C122.024 70.6159 121.764 70.9065 121.473 71.4877C121.198 72.0536 120.931 72.8489 120.671 73.8736C120.426 74.883 120.22 76.0071 120.052 77.2459C120.954 76.4659 121.626 75.5942 122.07 74.6306C122.528 73.6518 122.757 72.7648 122.757 71.9695C122.757 71.0671 122.589 70.6159 122.253 70.6159Z" fill="#1E2F42"/>
</g>
<g filter="url(#filter1_di_6_35)">
<path d="M29.7306 111.586C28.7251 111.586 28.005 111.369 27.5702 110.934C27.1354 110.471 26.918 109.615 26.918 108.364C26.918 107.521 26.9995 106.447 27.1626 105.142C27.3528 103.81 27.6517 101.988 28.0593 99.6772C28.7659 95.4085 29.3229 91.7107 29.7306 88.5839C29.9751 86.6263 30.0974 84.9949 30.0974 83.6898C30.0974 82.4663 29.649 81.8545 28.7523 81.8545C28.0457 81.8545 27.1897 82.2216 26.1843 82.9557C25.206 83.6626 24.119 84.8046 22.9233 86.3816C22.5429 86.8981 22.1217 87.1565 21.6597 87.1565C21.2793 87.1565 20.9396 86.9797 20.6407 86.6263C20.3689 86.2456 20.233 85.8242 20.233 85.3619C20.233 84.927 20.3146 84.4918 20.4776 84.0568C20.6678 83.5946 20.9667 83.078 21.3744 82.507C22.6787 80.6854 24.1326 79.2851 25.7359 78.3063C27.3392 77.3003 28.9425 76.7972 30.5458 76.7972C32.0404 76.7972 33.1817 77.2731 33.9698 78.2247C34.785 79.1764 35.1927 80.563 35.1927 82.3847C35.1927 83.1188 35.1248 83.9889 34.9888 84.9949C34.8529 85.9737 34.7306 86.7758 34.622 87.4012C34.5133 88.0266 34.4318 88.4616 34.3774 88.7063C35.9264 84.2744 37.6655 81.1883 39.5949 79.4482C41.5244 77.6809 43.644 76.7972 45.9538 76.7972C47.7202 76.7972 49.1061 77.4226 50.1115 78.6733C51.1442 79.924 51.6605 81.6914 51.6605 83.9753C51.6605 84.8725 51.5382 85.9874 51.2936 87.3196C52.6524 83.5674 54.2421 80.8757 56.0627 79.2443C57.8834 77.6129 59.9759 76.7972 62.3401 76.7972C64.2423 76.7972 65.6962 77.409 66.7016 78.6325C67.7343 79.8561 68.2506 81.569 68.2506 83.7714C68.2506 84.9677 68.0739 86.4223 67.7207 88.1353L65.2342 99.7996C64.9625 101.159 64.8266 102.328 64.8266 103.307C64.8266 104.449 65.0848 105.305 65.601 105.876C66.1446 106.447 66.8918 106.733 67.8429 106.733C68.7397 106.733 69.6093 106.434 70.4517 105.836C71.3213 105.238 72.3404 104.245 73.5088 102.858C73.8349 102.478 74.2018 102.287 74.6094 102.287C74.9626 102.287 75.2345 102.451 75.4247 102.777C75.6421 103.103 75.7507 103.552 75.7507 104.123C75.7507 105.183 75.4925 106.026 74.9763 106.651C73.5632 108.364 72.1637 109.615 70.7778 110.404C69.3919 111.192 67.9381 111.586 66.4163 111.586C64.1065 111.586 62.2993 110.907 60.9949 109.547C59.6906 108.16 59.0384 106.311 59.0384 104C59.0384 102.396 59.3645 100.071 60.0167 97.0263L61.6471 89.5627C61.7015 89.318 61.7965 88.883 61.9325 88.2576C62.0684 87.6322 62.177 87.0477 62.2586 86.5039C62.3401 85.9329 62.3808 85.3756 62.3808 84.8318C62.3808 83.8801 62.1907 83.1732 61.8102 82.711C61.457 82.2216 60.9405 81.9768 60.2612 81.9768C58.984 81.9768 57.6388 82.8062 56.2258 84.4647C54.8399 86.0961 53.5084 88.815 52.2311 92.6216C50.9811 96.4281 49.9621 101.377 49.174 107.467C48.9838 109.098 48.6441 110.2 48.1549 110.771C47.6929 111.314 46.9321 111.586 45.8723 111.586C44.9484 111.586 44.2689 111.369 43.8342 110.934C43.4266 110.499 43.2227 109.683 43.2227 108.487C43.2227 107.372 43.3722 105.917 43.6711 104.123C43.9701 102.301 44.3505 100.167 44.8125 97.7196C46.0625 91.1397 46.6875 86.8981 46.6875 84.9949C46.6875 83.9616 46.4837 83.2004 46.0761 82.711C45.6956 82.2216 45.1114 81.9768 44.3233 81.9768C42.9918 81.9768 41.6194 82.7381 40.2064 84.2608C38.7933 85.7562 37.4074 88.4344 36.0487 92.2953C34.7171 96.129 33.6029 101.322 32.7062 107.875C32.516 109.262 32.2307 110.227 31.8502 110.771C31.4969 111.314 30.7904 111.586 29.7306 111.586Z" fill="#1E2F42"/>
<path d="M29.7306 111.586C28.7251 111.586 28.005 111.369 27.5702 110.934C27.1354 110.471 26.918 109.615 26.918 108.364C26.918 107.521 26.9995 106.447 27.1626 105.142C27.3528 103.81 27.6517 101.988 28.0593 99.6772C28.7659 95.4085 29.3229 91.7107 29.7306 88.5839C29.9751 86.6263 30.0974 84.9949 30.0974 83.6898C30.0974 82.4663 29.649 81.8545 28.7523 81.8545C28.0457 81.8545 27.1897 82.2216 26.1843 82.9557C25.206 83.6626 24.119 84.8046 22.9233 86.3816C22.5429 86.8981 22.1217 87.1565 21.6597 87.1565C21.2793 87.1565 20.9396 86.9797 20.6407 86.6263C20.3689 86.2456 20.233 85.8242 20.233 85.3619C20.233 84.927 20.3146 84.4918 20.4776 84.0568C20.6678 83.5946 20.9667 83.078 21.3744 82.507C22.6787 80.6854 24.1326 79.2851 25.7359 78.3063C27.3392 77.3003 28.9425 76.7972 30.5458 76.7972C32.0404 76.7972 33.1817 77.2731 33.9698 78.2247C34.785 79.1764 35.1927 80.563 35.1927 82.3847C35.1927 83.1188 35.1248 83.9889 34.9888 84.9949C34.8529 85.9737 34.7306 86.7758 34.622 87.4012C34.5133 88.0266 34.4318 88.4616 34.3774 88.7063C35.9264 84.2744 37.6655 81.1883 39.5949 79.4482C41.5244 77.6809 43.644 76.7972 45.9538 76.7972C47.7202 76.7972 49.1061 77.4226 50.1115 78.6733C51.1442 79.924 51.6605 81.6914 51.6605 83.9753C51.6605 84.8725 51.5382 85.9874 51.2936 87.3196C52.6524 83.5674 54.2421 80.8757 56.0627 79.2443C57.8834 77.6129 59.9759 76.7972 62.3401 76.7972C64.2423 76.7972 65.6962 77.409 66.7016 78.6325C67.7343 79.8561 68.2506 81.569 68.2506 83.7714C68.2506 84.9677 68.0739 86.4223 67.7207 88.1353L65.2342 99.7996C64.9625 101.159 64.8266 102.328 64.8266 103.307C64.8266 104.449 65.0848 105.305 65.601 105.876C66.1446 106.447 66.8918 106.733 67.8429 106.733C68.7397 106.733 69.6093 106.434 70.4517 105.836C71.3213 105.238 72.3404 104.245 73.5088 102.858C73.8349 102.478 74.2018 102.287 74.6094 102.287C74.9626 102.287 75.2345 102.451 75.4247 102.777C75.6421 103.103 75.7507 103.552 75.7507 104.123C75.7507 105.183 75.4925 106.026 74.9763 106.651C73.5632 108.364 72.1637 109.615 70.7778 110.404C69.3919 111.192 67.9381 111.586 66.4163 111.586C64.1065 111.586 62.2993 110.907 60.9949 109.547C59.6906 108.16 59.0384 106.311 59.0384 104C59.0384 102.396 59.3645 100.071 60.0167 97.0263L61.6471 89.5627C61.7015 89.318 61.7965 88.883 61.9325 88.2576C62.0684 87.6322 62.177 87.0477 62.2586 86.5039C62.3401 85.9329 62.3808 85.3756 62.3808 84.8318C62.3808 83.8801 62.1907 83.1732 61.8102 82.711C61.457 82.2216 60.9405 81.9768 60.2612 81.9768C58.984 81.9768 57.6388 82.8062 56.2258 84.4647C54.8399 86.0961 53.5084 88.815 52.2311 92.6216C50.9811 96.4281 49.9621 101.377 49.174 107.467C48.9838 109.098 48.6441 110.2 48.1549 110.771C47.6929 111.314 46.9321 111.586 45.8723 111.586C44.9484 111.586 44.2689 111.369 43.8342 110.934C43.4266 110.499 43.2227 109.683 43.2227 108.487C43.2227 107.372 43.3722 105.917 43.6711 104.123C43.9701 102.301 44.3505 100.167 44.8125 97.7196C46.0625 91.1397 46.6875 86.8981 46.6875 84.9949C46.6875 83.9616 46.4837 83.2004 46.0761 82.711C45.6956 82.2216 45.1114 81.9768 44.3233 81.9768C42.9918 81.9768 41.6194 82.7381 40.2064 84.2608C38.7933 85.7562 37.4074 88.4344 36.0487 92.2953C34.7171 96.129 33.6029 101.322 32.7062 107.875C32.516 109.262 32.2307 110.227 31.8502 110.771C31.4969 111.314 30.7904 111.586 29.7306 111.586Z" fill="#DB88A7"/>
<path d="M77.4799 111.586C75.7951 111.586 74.4499 110.974 73.4445 109.751C72.4391 108.527 71.9363 106.923 71.9363 104.938C71.9363 102.763 72.4391 100.71 73.4445 98.78C74.4499 96.8223 75.7816 95.2589 77.4392 94.0898C79.124 92.8934 80.9039 92.2953 82.779 92.2953C83.3768 92.2953 83.7709 92.4176 83.9611 92.6623C84.1785 92.8799 84.3551 93.2877 84.491 93.8859C85.0617 93.7772 85.6595 93.7227 86.2845 93.7227C87.616 93.7227 88.2819 94.1985 88.2819 95.1502C88.2819 95.7212 88.078 97.0807 87.6704 99.2286C87.0454 102.355 86.7329 104.531 86.7329 105.754C86.7329 106.162 86.8281 106.488 87.0182 106.733C87.2357 106.978 87.5074 107.1 87.8335 107.1C88.3497 107.1 88.9748 106.774 89.7085 106.121C90.4422 105.441 91.4341 104.354 92.6841 102.858C93.0102 102.478 93.3771 102.287 93.7847 102.287C94.1379 102.287 94.4098 102.451 94.5999 102.777C94.8174 103.103 94.926 103.552 94.926 104.123C94.926 105.21 94.6678 106.053 94.1516 106.651C93.0374 108.038 91.8553 109.207 90.6053 110.159C89.3553 111.11 88.1459 111.586 86.9775 111.586C86.0807 111.586 85.2518 111.287 84.491 110.689C83.7573 110.064 83.2002 109.221 82.8198 108.16C81.4067 110.444 79.6267 111.586 77.4799 111.586ZM78.9474 107.467C79.5452 107.467 80.1158 107.114 80.6594 106.407C81.2029 105.7 81.5969 104.762 81.8415 103.593L83.3497 96.0882C82.2083 96.1154 81.1485 96.5505 80.1702 97.3933C79.2191 98.209 78.4582 99.2965 77.8876 100.656C77.3169 102.016 77.0316 103.457 77.0316 104.979C77.0316 105.822 77.1946 106.447 77.5207 106.855C77.8739 107.263 78.3496 107.467 78.9474 107.467ZM107.755 98.9431C107.755 101.091 107.252 103.13 106.247 105.061C105.268 106.964 103.95 108.514 102.293 109.71C100.662 110.907 98.9096 111.532 97.0346 111.586C96.6812 116.834 95.8796 121.211 94.6296 124.719C93.3795 128.253 91.5452 130.021 89.1266 130.021C87.6592 130.021 86.5723 129.491 85.8657 128.43C85.1592 127.37 84.8059 125.902 84.8059 124.025C84.8059 121.361 85.4173 118.248 86.6402 114.686C87.863 111.151 89.7517 107.249 92.3062 102.981C92.3062 99.0111 92.2789 96.2514 92.2247 94.7016C92.1974 93.913 92.51 93.2877 93.1622 92.8255C93.8144 92.3632 94.6296 92.1321 95.6079 92.1321C96.1786 92.1321 96.5862 92.2545 96.8308 92.4992C97.1025 92.7168 97.2519 93.1654 97.2792 93.8451C97.2792 94.5248 97.2927 95.0278 97.3199 95.3541C98.1894 94.2666 99.0454 93.4917 99.8879 93.0294C100.73 92.54 101.627 92.2953 102.578 92.2953C104.1 92.2953 105.336 92.907 106.288 94.1306C107.266 95.3541 107.755 96.9583 107.755 98.9431ZM97.2384 107.671C98.2167 107.453 99.1134 106.923 99.9287 106.08C100.771 105.21 101.437 104.15 101.926 102.899C102.415 101.621 102.66 100.289 102.66 98.9023C102.66 98.0867 102.497 97.4749 102.171 97.067C101.844 96.6321 101.41 96.4145 100.866 96.4145C99.8879 96.4145 98.7058 97.4477 97.3199 99.5141C97.2927 100.71 97.2792 102.464 97.2792 104.775C97.2792 106.026 97.2655 106.991 97.2384 107.671ZM89.4527 126.024C90.1866 126.024 90.798 124.42 91.2871 121.211C91.7763 118.03 92.0888 114.06 92.2247 109.302C91.0561 112.021 90.1322 114.618 89.4527 117.092C88.7734 119.566 88.4337 121.646 88.4337 123.332C88.4337 124.202 88.5425 124.868 88.7598 125.331C88.9501 125.793 89.181 126.024 89.4527 126.024Z" fill="#1E2F42"/>
</g>
<defs>
<filter id="filter0_di_6_35" x="64.6556" y="68.4136" width="64.5551" height="28.1424" filterUnits="userSpaceOnUse" color-interpolation-filters="sRGB">
<feFlood flood-opacity="0" result="BackgroundImageFix"/>
<feColorMatrix in="SourceAlpha" type="matrix" values="0 0 0 0 0 0 0 0 0 0 0 0 0 0 0 0 0 0 127 0" result="hardAlpha"/>
<feOffset dy="4"/>
<feGaussianBlur stdDeviation="2"/>
<feComposite in2="hardAlpha" operator="out"/>
<feColorMatrix type="matrix" values="0 0 0 0 0 0 0 0 0 0 0 0 0 0 0 0 0 0 0.25 0"/>
<feBlend mode="normal" in2="BackgroundImageFix" result="effect1_dropShadow_6_35"/>
<feBlend mode="normal" in="SourceGraphic" in2="effect1_dropShadow_6_35" result="shape"/>
<feColorMatrix in="SourceAlpha" type="matrix" values="0 0 0 0 0 0 0 0 0 0 0 0 0 0 0 0 0 0 127 0" result="hardAlpha"/>
<feOffset dy="4"/>
<feGaussianBlur stdDeviation="2"/>
<feComposite in2="hardAlpha" operator="arithmetic" k2="-1" k3="1"/>
<feColorMatrix type="matrix" values="0 0 0 0 0 0 0 0 0 0 0 0 0 0 0 0 0 0 0.1 0"/>
<feBlend mode="normal" in2="shape" result="effect2_innerShadow_6_35"/>
</filter>
<filter id="filter1_di_6_35" x="16.233" y="76.7972" width="95.5219" height="61.2235" filterUnits="userSpaceOnUse" color-interpolation-filters="sRGB">
<feFlood flood-opacity="0" result="BackgroundImageFix"/>
<feColorMatrix in="SourceAlpha" type="matrix" values="0 0 0 0 0 0 0 0 0 0 0 0 0 0 0 0 0 0 127 0" result="hardAlpha"/>
<feOffset dy="4"/>
<feGaussianBlur stdDeviation="2"/>
<feComposite in2="hardAlpha" operator="out"/>
<feColorMatrix type="matrix" values="0 0 0 0 0 0 0 0 0 0 0 0 0 0 0 0 0 0 0.25 0"/>
<feBlend mode="normal" in2="BackgroundImageFix" result="effect1_dropShadow_6_35"/>
<feBlend mode="normal" in="SourceGraphic" in2="effect1_dropShadow_6_35" result="shape"/>
<feColorMatrix in="SourceAlpha" type="matrix" values="0 0 0 0 0 0 0 0 0 0 0 0 0 0 0 0 0 0 127 0" result="hardAlpha"/>
<feOffset dy="4"/>
<feGaussianBlur stdDeviation="2"/>
<feComposite in2="hardAlpha" operator="arithmetic" k2="-1" k3="1"/>
<feColorMatrix type="matrix" values="0 0 0 0 0 0 0 0 0 0 0 0 0 0 0 0 0 0 0.1 0"/>
<feBlend mode="normal" in2="shape" result="effect2_innerShadow_6_35"/>
</filter>
</defs>
</svg>
