<svg width="128" height="129" viewBox="0 0 128 129" fill="none" xmlns="http://www.w3.org/2000/svg">
<path d="M0 20.5C0 9.45431 8.95431 0.5 20 0.5H108C119.046 0.5 128 9.45431 128 20.5V108.5C128 119.546 119.046 128.5 108 128.5H20C8.95431 128.5 0 119.546 0 108.5V20.5Z" fill="#FBF6F6"/>
<mask id="path-2-inside-1_11_43" fill="white">
<path fill-rule="evenodd" clip-rule="evenodd" d="M125.326 10.5036C82.7177 7.24687 68.073 12.1714 55.6905 16.3353C43.3778 20.4756 33.3017 23.8639 0.193237 17.7087C1.55118 7.98436 9.90156 0.5 20 0.5H108C115.404 0.5 121.869 4.52359 125.326 10.5036Z"/>
</mask>
<path fill-rule="evenodd" clip-rule="evenodd" d="M125.326 10.5036C82.7177 7.24687 68.073 12.1714 55.6905 16.3353C43.3778 20.4756 33.3017 23.8639 0.193237 17.7087C1.55118 7.98436 9.90156 0.5 20 0.5H108C115.404 0.5 121.869 4.52359 125.326 10.5036Z" fill="#DB88A7"/>
<path d="M125.326 10.5036L125.25 11.5007L127.142 11.6452L126.192 10.003L125.326 10.5036ZM55.6905 16.3353L55.3717 15.3874L55.6905 16.3353ZM0.193237 17.7087L-0.797153 17.5704L-0.929359 18.5172L0.0104598 18.6919L0.193237 17.7087ZM125.403 9.50647C104.054 7.87475 89.6692 8.28911 79.0471 9.64476C68.4109 11.0022 61.5782 13.3004 55.3717 15.3874L56.0092 17.2831C62.1853 15.2063 68.8662 12.9603 79.3002 11.6287C89.7482 10.2953 103.99 9.87569 125.25 11.5007L125.403 9.50647ZM55.3717 15.3874C49.2222 17.4553 43.7284 19.3001 35.6679 19.8855C27.5895 20.4721 16.8865 19.795 0.376015 16.7256L0.0104598 18.6919C16.6085 21.7776 27.4977 22.484 35.8127 21.8802C44.1454 21.2751 49.8461 19.3556 56.0092 17.2831L55.3717 15.3874ZM1.18363 17.847C2.47354 8.60984 10.4073 1.5 20 1.5V-0.5C9.3958 -0.5 0.628825 7.35889 -0.797153 17.5704L1.18363 17.847ZM20 1.5H108V-0.5H20V1.5ZM108 1.5C115.033 1.5 121.174 5.32052 124.461 11.0041L126.192 10.003C122.563 3.72665 115.776 -0.5 108 -0.5V1.5Z" fill="#DB88A7" mask="url(#path-2-inside-1_11_43)"/>
<mask id="path-4-inside-2_11_43" fill="white">
<path fill-rule="evenodd" clip-rule="evenodd" d="M128 108.003V108.5C128 119.546 119.046 128.5 108 128.5H20C8.95431 128.5 0 119.546 0 108.5V105.372C27.7079 103.642 49.7446 106.924 68.6159 109.735C91.5966 113.157 109.883 115.88 128 108.003Z"/>
</mask>
<path fill-rule="evenodd" clip-rule="evenodd" d="M128 108.003V108.5C128 119.546 119.046 128.5 108 128.5H20C8.95431 128.5 0 119.546 0 108.5V105.372C27.7079 103.642 49.7446 106.924 68.6159 109.735C91.5966 113.157 109.883 115.88 128 108.003Z" fill="#4096C2"/>
<path d="M128 108.003H129V106.478L127.601 107.086L128 108.003ZM0 105.372L-0.0622968 104.374L-1 104.432V105.372H0ZM68.6159 109.735L68.7632 108.745L68.6159 109.735ZM127 108.003V108.5H129V108.003H127ZM127 108.5C127 118.993 118.493 127.5 108 127.5V129.5C119.598 129.5 129 120.098 129 108.5H127ZM108 127.5H20V129.5H108V127.5ZM20 127.5C9.50659 127.5 1 118.993 1 108.5H-1C-1 120.098 8.40202 129.5 20 129.5V127.5ZM1 108.5V105.372H-1V108.5H1ZM68.7632 108.745C49.8882 105.934 27.7601 102.637 -0.0622968 104.374L0.0622968 106.37C27.6557 104.647 49.6011 107.914 68.4686 110.724L68.7632 108.745ZM127.601 107.086C109.793 114.829 91.805 112.177 68.7632 108.745L68.4686 110.724C91.3882 114.137 109.974 116.931 128.399 108.921L127.601 107.086Z" fill="#4096C2" mask="url(#path-4-inside-2_11_43)"/>
<g filter="url(#filter0_di_11_43)">
<path d="M65.998 55.5559C65.4324 55.5559 65.0274 55.4336 64.7828 55.1889C64.5382 54.9289 64.4159 54.4471 64.4159 53.7436C64.4159 53.2695 64.4618 52.6654 64.5535 51.9312C64.6605 51.1818 64.8286 50.1571 65.0579 48.8571C65.4554 46.4559 65.7687 44.3759 65.998 42.6171C66.1356 41.5159 66.2044 40.5983 66.2044 39.8642C66.2044 39.1759 65.9521 38.8318 65.4477 38.8318C65.0503 38.8318 64.5688 39.0383 64.0032 39.4512C63.4529 39.8489 62.8415 40.4912 62.1689 41.3783C61.9549 41.6689 61.718 41.8142 61.4581 41.8142C61.2441 41.8142 61.0531 41.7148 60.8849 41.5159C60.7321 41.3018 60.6556 41.0648 60.6556 40.8048C60.6556 40.5601 60.7015 40.3154 60.7932 40.0707C60.9002 39.8107 61.0684 39.5201 61.2976 39.1989C62.0314 38.1742 62.8491 37.3865 63.751 36.8359C64.6529 36.2701 65.5547 35.9871 66.4566 35.9871C67.2973 35.9871 67.9393 36.2548 68.3826 36.7901C68.8411 37.3254 69.0704 38.1054 69.0704 39.1301C69.0704 39.543 69.0322 40.0324 68.9558 40.5983C68.8794 41.1489 68.8106 41.6001 68.7494 41.9518C68.6883 42.3036 68.6424 42.5483 68.6119 42.6859C69.4831 40.193 70.4614 38.4571 71.5467 37.4783C72.632 36.4842 73.8243 35.9871 75.1236 35.9871C76.1171 35.9871 76.8967 36.3389 77.4623 37.0424C78.0431 37.7459 78.3336 38.7401 78.3336 40.0248C78.3336 40.5295 78.2648 41.1565 78.1272 41.9059C78.8915 39.7954 79.7857 38.2812 80.8099 37.3636C81.834 36.4459 83.011 35.9871 84.3409 35.9871C85.4109 35.9871 86.2286 36.3312 86.7942 37.0195C87.3751 37.7077 87.6655 38.6712 87.6655 39.9101C87.6655 40.583 87.5661 41.4012 87.3674 42.3648L85.9688 48.9259C85.8159 49.6907 85.7395 50.3483 85.7395 50.8989C85.7395 51.5412 85.8847 52.023 86.1751 52.3442C86.4809 52.6654 86.9012 52.8259 87.4362 52.8259C87.9406 52.8259 88.4298 52.6577 88.9036 52.3212C89.3928 51.9848 89.966 51.4265 90.6233 50.6465C90.8067 50.4324 91.0131 50.3254 91.2424 50.3254C91.4411 50.3254 91.5939 50.4171 91.7009 50.6007C91.8232 50.7842 91.8844 51.0365 91.8844 51.3577C91.8844 51.9542 91.7391 52.4283 91.4487 52.7801C90.6539 53.7436 89.8666 54.4471 89.0871 54.8907C88.3075 55.3342 87.4897 55.5559 86.6337 55.5559C85.3344 55.5559 84.3179 55.1736 83.5842 54.4089C82.8505 53.6289 82.4836 52.5889 82.4836 51.2889C82.4836 50.3865 82.6671 49.0789 83.0339 47.3659L83.9511 43.1677C83.9816 43.0301 84.0351 42.7854 84.1116 42.4336C84.188 42.0818 84.2491 41.753 84.295 41.4471C84.3409 41.1259 84.3638 40.8124 84.3638 40.5065C84.3638 39.9712 84.2568 39.5736 84.0428 39.3136C83.8441 39.0383 83.5536 38.9007 83.1715 38.9007C82.4531 38.9007 81.6964 39.3671 80.9016 40.3001C80.122 41.2177 79.373 42.7471 78.6546 44.8883C77.9514 47.0295 77.3782 49.813 76.9349 53.2389C76.8279 54.1565 76.6369 54.7759 76.3617 55.0971C76.1019 55.403 75.6739 55.5559 75.0777 55.5559C74.558 55.5559 74.1759 55.4336 73.9313 55.1889C73.702 54.9442 73.5874 54.4854 73.5874 53.8124C73.5874 53.1854 73.6714 52.3671 73.8396 51.3577C74.0077 50.333 74.2217 49.1324 74.4816 47.7559C75.1847 44.0548 75.5363 41.6689 75.5363 40.5983C75.5363 40.0171 75.4216 39.5889 75.1924 39.3136C74.9784 39.0383 74.6497 38.9007 74.2064 38.9007C73.4574 38.9007 72.6855 39.3289 71.8906 40.1854C71.0958 41.0265 70.3162 42.533 69.5519 44.7048C68.8029 46.8612 68.1762 49.7824 67.6718 53.4683C67.5648 54.2483 67.4043 54.7912 67.1903 55.0971C66.9916 55.403 66.5941 55.5559 65.998 55.5559Z" fill="#4096C2"/>
<path d="M100.263 50.3253C100.462 50.3253 100.615 50.4171 100.722 50.6006C100.844 50.7842 100.905 51.0365 100.905 51.3577C100.905 51.9695 100.76 52.4436 100.469 52.78C99.9038 53.4683 99.1013 54.103 98.0618 54.6842C97.0377 55.2653 95.9371 55.5559 94.7601 55.5559C93.1551 55.5559 91.9093 55.12 91.0228 54.2483C90.1362 53.3765 89.6929 52.1836 89.6929 50.6695C89.6929 49.6142 89.9145 48.6353 90.3578 47.733C90.8011 46.8153 91.4125 46.0889 92.1921 45.5536C92.987 45.0183 93.8812 44.7506 94.8748 44.7506C95.7613 44.7506 96.4721 45.0183 97.0071 45.5536C97.5421 46.0736 97.8096 46.7847 97.8096 47.6871C97.8096 48.7424 97.4275 49.6524 96.6632 50.4171C95.9142 51.1665 94.6378 51.763 92.8341 52.2065C93.2163 52.91 93.9423 53.2618 95.0123 53.2618C95.7002 53.2618 96.4798 53.0247 97.351 52.5506C98.2376 52.0612 99.0019 51.4265 99.6439 50.6465C99.8273 50.4324 100.034 50.3253 100.263 50.3253ZM94.485 46.9989C93.9194 46.9989 93.4379 47.3277 93.0405 47.9853C92.6583 48.643 92.4673 49.4383 92.4673 50.3712V50.4171C93.3691 50.203 94.0799 49.8818 94.5996 49.4536C95.1193 49.0253 95.3792 48.5283 95.3792 47.9624C95.3792 47.6718 95.2951 47.4424 95.127 47.2742C94.9741 47.0906 94.7601 46.9989 94.485 46.9989ZM109.264 50.3253C109.463 50.3253 109.616 50.4171 109.723 50.6006C109.845 50.7842 109.906 51.0365 109.906 51.3577C109.906 51.9695 109.761 52.4436 109.471 52.78C108.905 53.4683 108.103 54.103 107.063 54.6842C106.039 55.2653 104.938 55.5559 103.761 55.5559C102.156 55.5559 100.911 55.12 100.024 54.2483C99.1374 53.3765 98.6942 52.1836 98.6942 50.6695C98.6942 49.6142 98.9158 48.6353 99.3591 47.733C99.8024 46.8153 100.414 46.0889 101.193 45.5536C101.988 45.0183 102.882 44.7506 103.876 44.7506C104.763 44.7506 105.473 45.0183 106.008 45.5536C106.543 46.0736 106.811 46.7847 106.811 47.6871C106.811 48.7424 106.429 49.6524 105.664 50.4171C104.915 51.1665 103.639 51.763 101.835 52.2065C102.218 52.91 102.944 53.2618 104.014 53.2618C104.701 53.2618 105.481 53.0247 106.352 52.5506C107.239 52.0612 108.003 51.4265 108.645 50.6465C108.829 50.4324 109.035 50.3253 109.264 50.3253ZM103.486 46.9989C102.921 46.9989 102.439 47.3277 102.042 47.9853C101.66 48.643 101.469 49.4383 101.469 50.3712V50.4171C102.37 50.203 103.081 49.8818 103.601 49.4536C104.121 49.0253 104.38 48.5283 104.38 47.9624C104.38 47.6718 104.296 47.4424 104.128 47.2742C103.975 47.0906 103.761 46.9989 103.486 46.9989ZM111.823 46.93C111.792 47.6947 111.777 48.2912 111.777 48.7195C111.777 49.8206 111.83 50.6847 111.937 51.3118C112.059 51.9236 112.251 52.3671 112.51 52.6424C112.786 52.9024 113.16 53.0324 113.634 53.0324C113.878 53.0324 114.169 52.9559 114.505 52.803C114.841 52.65 115.147 52.4512 115.422 52.2065C115.59 52.0536 115.759 51.9771 115.927 51.9771C116.11 51.9771 116.255 52.0842 116.362 52.2983C116.485 52.4971 116.546 52.7418 116.546 53.0324C116.546 53.323 116.485 53.6059 116.362 53.8812C116.255 54.1565 116.087 54.3859 115.858 54.5695C115.063 55.2271 114.161 55.5559 113.152 55.5559C111.7 55.5559 110.638 54.9518 109.965 53.7436C109.293 52.52 108.956 50.9295 108.956 48.9718C108.956 48.2989 108.979 47.6183 109.025 46.93H108.131C107.672 46.93 107.359 46.8459 107.191 46.6777C107.038 46.5095 106.962 46.2418 106.962 45.8748C106.962 45.0183 107.306 44.59 107.993 44.59H109.3C109.56 42.9077 109.958 41.3706 110.493 39.9789C111.028 38.5871 111.67 37.4783 112.419 36.6524C113.183 35.8265 114.001 35.4136 114.872 35.4136C115.514 35.4136 116.018 35.6965 116.385 36.2624C116.752 36.8283 116.936 37.5395 116.936 38.3959C116.936 40.7665 115.942 42.8312 113.955 44.59H116.523C116.767 44.59 116.943 44.6436 117.05 44.7506C117.157 44.8577 117.211 45.0565 117.211 45.3471C117.211 46.4024 116.347 46.93 114.62 46.93H111.823ZM114.253 37.6159C114.024 37.6159 113.764 37.9065 113.473 38.4877C113.198 39.0536 112.931 39.8489 112.671 40.8736C112.426 41.883 112.22 43.0071 112.052 44.2459C112.954 43.4659 113.626 42.5942 114.07 41.6306C114.528 40.6518 114.757 39.7648 114.757 38.9695C114.757 38.0671 114.589 37.6159 114.253 37.6159Z" fill="#1E2F42"/>
</g>
<g filter="url(#filter1_di_11_43)">
<path d="M21.7306 78.5863C20.7251 78.5863 20.005 78.3687 19.5702 77.9337C19.1354 77.4714 18.918 76.615 18.918 75.3643C18.918 74.5215 18.9995 73.4474 19.1626 72.1423C19.3528 70.8101 19.6517 68.9883 20.0593 66.6772C20.7659 62.4085 21.3229 58.7107 21.7306 55.5839C21.9751 53.6263 22.0974 51.9949 22.0974 50.6898C22.0974 49.4663 21.649 48.8545 20.7523 48.8545C20.0457 48.8545 19.1897 49.2216 18.1843 49.9557C17.206 50.6626 16.119 51.8046 14.9233 53.3816C14.5429 53.8981 14.1217 54.1565 13.6597 54.1565C13.2793 54.1565 12.9396 53.9797 12.6407 53.6263C12.3689 53.2456 12.233 52.8242 12.233 52.3619C12.233 51.927 12.3146 51.4918 12.4776 51.0568C12.6678 50.5946 12.9667 50.078 13.3744 49.507C14.6787 47.6854 16.1326 46.2851 17.7359 45.3063C19.3392 44.3003 20.9425 43.7972 22.5458 43.7972C24.0404 43.7972 25.1817 44.2731 25.9698 45.2247C26.785 46.1764 27.1927 47.563 27.1927 49.3847C27.1927 50.1188 27.1248 50.9889 26.9888 51.9949C26.8529 52.9737 26.7306 53.7758 26.622 54.4012C26.5133 55.0266 26.4318 55.4616 26.3774 55.7063C27.9264 51.2744 29.6655 48.1883 31.5949 46.4482C33.5244 44.6809 35.644 43.7972 37.9538 43.7972C39.7202 43.7972 41.1061 44.4226 42.1115 45.6733C43.1442 46.924 43.6605 48.6914 43.6605 50.9753C43.6605 51.8725 43.5382 52.9874 43.2936 54.3196C44.6524 50.5674 46.2421 47.8757 48.0627 46.2443C49.8834 44.6129 51.9759 43.7972 54.3401 43.7972C56.2423 43.7972 57.6962 44.409 58.7016 45.6325C59.7343 46.8561 60.2506 48.569 60.2506 50.7714C60.2506 51.9677 60.0739 53.4223 59.7207 55.1353L57.2342 66.7996C56.9625 68.1591 56.8266 69.3282 56.8266 70.307C56.8266 71.449 57.0848 72.3055 57.601 72.8765C58.1446 73.4474 58.8918 73.7329 59.8429 73.7329C60.7397 73.7329 61.6093 73.4338 62.4517 72.8357C63.3213 72.2375 64.3404 71.2451 65.5088 69.8584C65.8349 69.4777 66.2018 69.2874 66.6094 69.2874C66.9626 69.2874 67.2345 69.4506 67.4247 69.7768C67.6421 70.1031 67.7507 70.5518 67.7507 71.1227C67.7507 72.1831 67.4925 73.026 66.9763 73.6514C65.5632 75.3643 64.1637 76.615 62.7778 77.4035C61.3919 78.1921 59.9381 78.5863 58.4163 78.5863C56.1065 78.5863 54.2993 77.9066 52.9949 76.5471C51.6906 75.1604 51.0384 73.3114 51.0384 71.0004C51.0384 69.3962 51.3645 67.0714 52.0167 64.0263L53.6471 56.5627C53.7015 56.318 53.7965 55.883 53.9325 55.2576C54.0684 54.6322 54.177 54.0477 54.2586 53.5039C54.3401 52.9329 54.3808 52.3756 54.3808 51.8318C54.3808 50.8801 54.1907 50.1732 53.8102 49.711C53.457 49.2216 52.9405 48.9768 52.2612 48.9768C50.984 48.9768 49.6388 49.8062 48.2258 51.4647C46.8399 53.0961 45.5084 55.815 44.2311 59.6216C42.9811 63.4281 41.9621 68.3765 41.174 74.467C40.9838 76.0984 40.6441 77.1996 40.1549 77.7706C39.6929 78.3144 38.9321 78.5863 37.8723 78.5863C36.9484 78.5863 36.2689 78.3687 35.8342 77.9337C35.4266 77.4987 35.2227 76.683 35.2227 75.4867C35.2227 74.3718 35.3722 72.9172 35.6711 71.1227C35.9701 69.3011 36.3505 67.1667 36.8125 64.7196C38.0625 58.1397 38.6875 53.8981 38.6875 51.9949C38.6875 50.9616 38.4837 50.2004 38.0761 49.711C37.6956 49.2216 37.1114 48.9768 36.3233 48.9768C34.9918 48.9768 33.6194 49.7381 32.2064 51.2608C30.7933 52.7562 29.4074 55.4344 28.0487 59.2953C26.7171 63.129 25.6029 68.3223 24.7062 74.8749C24.516 76.2616 24.2307 77.2267 23.8502 77.7706C23.4969 78.3144 22.7904 78.5863 21.7306 78.5863Z" fill="#1E2F42"/>
<path d="M21.7306 78.5863C20.7251 78.5863 20.005 78.3687 19.5702 77.9337C19.1354 77.4714 18.918 76.615 18.918 75.3643C18.918 74.5215 18.9995 73.4474 19.1626 72.1423C19.3528 70.8101 19.6517 68.9883 20.0593 66.6772C20.7659 62.4085 21.3229 58.7107 21.7306 55.5839C21.9751 53.6263 22.0974 51.9949 22.0974 50.6898C22.0974 49.4663 21.649 48.8545 20.7523 48.8545C20.0457 48.8545 19.1897 49.2216 18.1843 49.9557C17.206 50.6626 16.119 51.8046 14.9233 53.3816C14.5429 53.8981 14.1217 54.1565 13.6597 54.1565C13.2793 54.1565 12.9396 53.9797 12.6407 53.6263C12.3689 53.2456 12.233 52.8242 12.233 52.3619C12.233 51.927 12.3146 51.4918 12.4776 51.0568C12.6678 50.5946 12.9667 50.078 13.3744 49.507C14.6787 47.6854 16.1326 46.2851 17.7359 45.3063C19.3392 44.3003 20.9425 43.7972 22.5458 43.7972C24.0404 43.7972 25.1817 44.2731 25.9698 45.2247C26.785 46.1764 27.1927 47.563 27.1927 49.3847C27.1927 50.1188 27.1248 50.9889 26.9888 51.9949C26.8529 52.9737 26.7306 53.7758 26.622 54.4012C26.5133 55.0266 26.4318 55.4616 26.3774 55.7063C27.9264 51.2744 29.6655 48.1883 31.5949 46.4482C33.5244 44.6809 35.644 43.7972 37.9538 43.7972C39.7202 43.7972 41.1061 44.4226 42.1115 45.6733C43.1442 46.924 43.6605 48.6914 43.6605 50.9753C43.6605 51.8725 43.5382 52.9874 43.2936 54.3196C44.6524 50.5674 46.2421 47.8757 48.0627 46.2443C49.8834 44.6129 51.9759 43.7972 54.3401 43.7972C56.2423 43.7972 57.6962 44.409 58.7016 45.6325C59.7343 46.8561 60.2506 48.569 60.2506 50.7714C60.2506 51.9677 60.0739 53.4223 59.7207 55.1353L57.2342 66.7996C56.9625 68.1591 56.8266 69.3282 56.8266 70.307C56.8266 71.449 57.0848 72.3055 57.601 72.8765C58.1446 73.4474 58.8918 73.7329 59.8429 73.7329C60.7397 73.7329 61.6093 73.4338 62.4517 72.8357C63.3213 72.2375 64.3404 71.2451 65.5088 69.8584C65.8349 69.4777 66.2018 69.2874 66.6094 69.2874C66.9626 69.2874 67.2345 69.4506 67.4247 69.7768C67.6421 70.1031 67.7507 70.5518 67.7507 71.1227C67.7507 72.1831 67.4925 73.026 66.9763 73.6514C65.5632 75.3643 64.1637 76.615 62.7778 77.4035C61.3919 78.1921 59.9381 78.5863 58.4163 78.5863C56.1065 78.5863 54.2993 77.9066 52.9949 76.5471C51.6906 75.1604 51.0384 73.3114 51.0384 71.0004C51.0384 69.3962 51.3645 67.0714 52.0167 64.0263L53.6471 56.5627C53.7015 56.318 53.7965 55.883 53.9325 55.2576C54.0684 54.6322 54.177 54.0477 54.2586 53.5039C54.3401 52.9329 54.3808 52.3756 54.3808 51.8318C54.3808 50.8801 54.1907 50.1732 53.8102 49.711C53.457 49.2216 52.9405 48.9768 52.2612 48.9768C50.984 48.9768 49.6388 49.8062 48.2258 51.4647C46.8399 53.0961 45.5084 55.815 44.2311 59.6216C42.9811 63.4281 41.9621 68.3765 41.174 74.467C40.9838 76.0984 40.6441 77.1996 40.1549 77.7706C39.6929 78.3144 38.9321 78.5863 37.8723 78.5863C36.9484 78.5863 36.2689 78.3687 35.8342 77.9337C35.4266 77.4987 35.2227 76.683 35.2227 75.4867C35.2227 74.3718 35.3722 72.9172 35.6711 71.1227C35.9701 69.3011 36.3505 67.1667 36.8125 64.7196C38.0625 58.1397 38.6875 53.8981 38.6875 51.9949C38.6875 50.9616 38.4837 50.2004 38.0761 49.711C37.6956 49.2216 37.1114 48.9768 36.3233 48.9768C34.9918 48.9768 33.6194 49.7381 32.2064 51.2608C30.7933 52.7562 29.4074 55.4344 28.0487 59.2953C26.7171 63.129 25.6029 68.3223 24.7062 74.8749C24.516 76.2616 24.2307 77.2267 23.8502 77.7706C23.4969 78.3144 22.7904 78.5863 21.7306 78.5863Z" fill="#DB88A7"/>
<path d="M69.4799 78.5863C67.7951 78.5863 66.4499 77.9745 65.4445 76.751C64.4391 75.5274 63.9363 73.9232 63.9363 71.9384C63.9363 69.7632 64.4391 67.7105 65.4445 65.78C66.4499 63.8223 67.7816 62.2589 69.4392 61.0898C71.124 59.8934 72.9039 59.2953 74.779 59.2953C75.3768 59.2953 75.7709 59.4176 75.9611 59.6623C76.1785 59.8799 76.3551 60.2877 76.491 60.8859C77.0617 60.7772 77.6595 60.7227 78.2845 60.7227C79.616 60.7227 80.2819 61.1985 80.2819 62.1502C80.2819 62.7212 80.078 64.0807 79.6704 66.2286C79.0454 69.3554 78.7329 71.5306 78.7329 72.7541C78.7329 73.1619 78.8281 73.4882 79.0182 73.7329C79.2357 73.9776 79.5074 74.1 79.8335 74.1C80.3497 74.1 80.9748 73.7737 81.7085 73.1212C82.4422 72.4415 83.4341 71.3538 84.6841 69.8584C85.0102 69.4777 85.3771 69.2874 85.7847 69.2874C86.1379 69.2874 86.4098 69.4506 86.5999 69.7768C86.8174 70.1031 86.926 70.5518 86.926 71.1227C86.926 72.2103 86.6678 73.0532 86.1516 73.6514C85.0374 75.038 83.8553 76.2071 82.6053 77.1588C81.3553 78.1105 80.1459 78.5863 78.9775 78.5863C78.0807 78.5863 77.2518 78.2871 76.491 77.689C75.7573 77.0636 75.2002 76.2208 74.8198 75.1604C73.4067 77.4443 71.6267 78.5863 69.4799 78.5863ZM70.9474 74.467C71.5452 74.467 72.1158 74.1136 72.6594 73.4067C73.2029 72.6997 73.5969 71.7616 73.8415 70.5925L75.3497 63.0882C74.2083 63.1154 73.1485 63.5505 72.1702 64.3933C71.2191 65.209 70.4582 66.2965 69.8876 67.6561C69.3169 69.0156 69.0316 70.4565 69.0316 71.9792C69.0316 72.822 69.1946 73.4474 69.5207 73.8553C69.8739 74.2631 70.3496 74.467 70.9474 74.467ZM99.755 65.9431C99.755 68.0911 99.2522 70.1303 98.2468 72.0608C97.2685 73.964 95.9505 75.5138 94.2929 76.7102C92.6624 77.9066 90.9096 78.5318 89.0346 78.5863C88.6812 83.8338 87.8796 88.2114 86.6296 91.7188C85.3795 95.2534 83.5452 97.0208 81.1266 97.0208C79.6592 97.0208 78.5723 96.4906 77.8657 95.4302C77.1592 94.3698 76.8059 92.9016 76.8059 91.0255C76.8059 88.3609 77.4173 85.2477 78.6402 81.6859C79.863 78.1513 81.7517 74.2495 84.3062 69.9808C84.3062 66.0111 84.2789 63.2514 84.2247 61.7016C84.1974 60.913 84.51 60.2877 85.1622 59.8255C85.8144 59.3632 86.6296 59.1321 87.6079 59.1321C88.1786 59.1321 88.5862 59.2545 88.8308 59.4992C89.1025 59.7168 89.2519 60.1654 89.2792 60.8451C89.2792 61.5248 89.2927 62.0278 89.3199 62.3541C90.1894 61.2666 91.0454 60.4917 91.8879 60.0294C92.7303 59.54 93.627 59.2953 94.5782 59.2953C96.0999 59.2953 97.3364 59.907 98.2875 61.1306C99.2658 62.3541 99.755 63.9583 99.755 65.9431ZM89.2384 74.671C90.2167 74.4534 91.1134 73.9232 91.9287 73.0804C92.771 72.2103 93.4369 71.1499 93.926 69.8992C94.4151 68.6213 94.6597 67.289 94.6597 65.9023C94.6597 65.0867 94.4967 64.4749 94.1706 64.067C93.8445 63.6321 93.4096 63.4145 92.8662 63.4145C91.8879 63.4145 90.7058 64.4477 89.3199 66.5141C89.2927 67.7105 89.2792 69.4642 89.2792 71.7753C89.2792 73.026 89.2655 73.9913 89.2384 74.671ZM81.4527 93.0239C82.1866 93.0239 82.798 91.4197 83.2871 88.2114C83.7763 85.0302 84.0888 81.0605 84.2247 76.3023C83.0561 79.0213 82.1322 81.6179 81.4527 84.0921C80.7734 86.5663 80.4337 88.6463 80.4337 90.3321C80.4337 91.2023 80.5425 91.8683 80.7598 92.3306C80.9501 92.7928 81.181 93.0239 81.4527 93.0239Z" fill="#1E2F42"/>
</g>
<defs>
<filter id="filter0_di_11_43" x="56.6556" y="35.4136" width="64.5551" height="28.1424" filterUnits="userSpaceOnUse" color-interpolation-filters="sRGB">
<feFlood flood-opacity="0" result="BackgroundImageFix"/>
<feColorMatrix in="SourceAlpha" type="matrix" values="0 0 0 0 0 0 0 0 0 0 0 0 0 0 0 0 0 0 127 0" result="hardAlpha"/>
<feOffset dy="4"/>
<feGaussianBlur stdDeviation="2"/>
<feComposite in2="hardAlpha" operator="out"/>
<feColorMatrix type="matrix" values="0 0 0 0 0 0 0 0 0 0 0 0 0 0 0 0 0 0 0.25 0"/>
<feBlend mode="normal" in2="BackgroundImageFix" result="effect1_dropShadow_11_43"/>
<feBlend mode="normal" in="SourceGraphic" in2="effect1_dropShadow_11_43" result="shape"/>
<feColorMatrix in="SourceAlpha" type="matrix" values="0 0 0 0 0 0 0 0 0 0 0 0 0 0 0 0 0 0 127 0" result="hardAlpha"/>
<feOffset dy="4"/>
<feGaussianBlur stdDeviation="2"/>
<feComposite in2="hardAlpha" operator="arithmetic" k2="-1" k3="1"/>
<feColorMatrix type="matrix" values="0 0 0 0 0 0 0 0 0 0 0 0 0 0 0 0 0 0 0.1 0"/>
<feBlend mode="normal" in2="shape" result="effect2_innerShadow_11_43"/>
</filter>
<filter id="filter1_di_11_43" x="8.23303" y="43.7972" width="95.5219" height="61.2235" filterUnits="userSpaceOnUse" color-interpolation-filters="sRGB">
<feFlood flood-opacity="0" result="BackgroundImageFix"/>
<feColorMatrix in="SourceAlpha" type="matrix" values="0 0 0 0 0 0 0 0 0 0 0 0 0 0 0 0 0 0 127 0" result="hardAlpha"/>
<feOffset dy="4"/>
<feGaussianBlur stdDeviation="2"/>
<feComposite in2="hardAlpha" operator="out"/>
<feColorMatrix type="matrix" values="0 0 0 0 0 0 0 0 0 0 0 0 0 0 0 0 0 0 0.25 0"/>
<feBlend mode="normal" in2="BackgroundImageFix" result="effect1_dropShadow_11_43"/>
<feBlend mode="normal" in="SourceGraphic" in2="effect1_dropShadow_11_43" result="shape"/>
<feColorMatrix in="SourceAlpha" type="matrix" values="0 0 0 0 0 0 0 0 0 0 0 0 0 0 0 0 0 0 127 0" result="hardAlpha"/>
<feOffset dy="4"/>
<feGaussianBlur stdDeviation="2"/>
<feComposite in2="hardAlpha" operator="arithmetic" k2="-1" k3="1"/>
<feColorMatrix type="matrix" values="0 0 0 0 0 0 0 0 0 0 0 0 0 0 0 0 0 0 0.1 0"/>
<feBlend mode="normal" in2="shape" result="effect2_innerShadow_11_43"/>
</filter>
</defs>
</svg>
