<svg width="127" height="73" viewBox="0 0 127 73" fill="none" xmlns="http://www.w3.org/2000/svg">
<g filter="url(#filter0_di_11_35)">
<path d="M83.8964 30.0792C83.0559 30.0792 82.454 29.8965 82.0905 29.531C81.7271 29.1428 81.5454 28.4233 81.5454 27.3727C81.5454 26.6647 81.6135 25.7626 81.7498 24.6663C81.9088 23.5472 82.1587 22.0169 82.4994 20.0756C83.09 16.4899 83.5556 13.3837 83.8964 10.7572C84.1008 9.11281 84.203 7.74246 84.203 6.64618C84.203 5.61841 83.8282 5.10453 83.0786 5.10453C82.488 5.10453 81.7725 5.41286 80.9321 6.02952C80.1143 6.62334 79.2057 7.58259 78.2062 8.90726C77.8882 9.3412 77.5362 9.55817 77.15 9.55817C76.832 9.55817 76.548 9.40972 76.2982 9.11281C76.071 8.79306 75.9575 8.43905 75.9575 8.05079C75.9575 7.68536 76.0256 7.31993 76.1619 6.95451C76.3209 6.56624 76.5708 6.1323 76.9115 5.65267C78.0018 4.12245 79.2171 2.94623 80.5573 2.12402C81.8974 1.27897 83.2376 0.856445 84.5778 0.856445C85.8271 0.856445 86.7812 1.25613 87.4399 2.0555C88.1214 2.85487 88.4621 4.01967 88.4621 5.5499C88.4621 6.16656 88.4053 6.89741 88.2917 7.74246C88.1781 8.56467 88.0759 9.23843 87.9851 9.76373C87.8942 10.289 87.8261 10.6545 87.7806 10.86C89.0754 7.13722 90.5292 4.54497 92.1419 3.08327C93.7547 1.59872 95.5265 0.856445 97.4572 0.856445C98.9337 0.856445 100.092 1.38175 100.933 2.43235C101.796 3.48295 102.227 4.9675 102.227 6.88599C102.227 7.63968 102.125 8.57609 101.921 9.69521C103.056 6.5434 104.385 4.28232 105.907 2.91197C107.429 1.54162 109.178 0.856445 111.154 0.856445C112.744 0.856445 113.96 1.37033 114.8 2.39809C115.663 3.42585 116.095 4.86472 116.095 6.7147C116.095 7.71962 115.947 8.94152 115.652 10.3804L113.574 20.1784C113.346 21.3204 113.233 22.3024 113.233 23.1246C113.233 24.0839 113.449 24.8033 113.88 25.283C114.334 25.7626 114.959 26.0024 115.754 26.0024C116.504 26.0024 117.231 25.7512 117.935 25.2487C118.662 24.7462 119.514 23.9126 120.49 22.7478C120.763 22.4281 121.069 22.2682 121.41 22.2682C121.706 22.2682 121.933 22.4052 122.092 22.6793C122.273 22.9534 122.364 23.3302 122.364 23.8098C122.364 24.7006 122.148 25.4086 121.717 25.9339C120.536 27.3727 119.366 28.4233 118.207 29.0857C117.049 29.748 115.834 30.0792 114.562 30.0792C112.631 30.0792 111.12 29.5082 110.03 28.3662C108.94 27.2014 108.395 25.6484 108.395 23.707C108.395 22.3595 108.667 20.4068 109.212 17.8488L110.575 11.5794C110.621 11.3739 110.7 11.0085 110.814 10.4832C110.927 9.95786 111.018 9.46682 111.086 9.01003C111.154 8.53041 111.188 8.06221 111.188 7.60542C111.188 6.80605 111.029 6.21223 110.711 5.82397C110.416 5.41286 109.985 5.20731 109.417 5.20731C108.349 5.20731 107.225 5.9039 106.044 7.29709C104.885 8.66745 103.772 10.9514 102.704 14.1489C101.66 17.3463 100.808 21.5031 100.149 26.619C99.99 27.9894 99.706 28.9144 99.2971 29.394C98.911 29.8508 98.275 30.0792 97.3891 30.0792C96.6168 30.0792 96.0489 29.8965 95.6855 29.531C95.3447 29.1656 95.1744 28.4804 95.1744 27.4755C95.1744 26.5391 95.2993 25.3172 95.5492 23.8098C95.799 22.2796 96.117 20.4867 96.5032 18.4312C97.5481 12.9041 98.0705 9.3412 98.0705 7.74246C98.0705 6.87457 97.9002 6.23507 97.5594 5.82397C97.2414 5.41286 96.7531 5.20731 96.0943 5.20731C94.9813 5.20731 93.8342 5.84681 92.653 7.1258C91.4718 8.38196 90.3134 10.6316 89.1776 13.8748C88.0646 17.0951 87.1333 21.4574 86.3837 26.9616C86.2247 28.1264 85.9861 28.9372 85.6681 29.394C85.3728 29.8508 84.7822 30.0792 83.8964 30.0792Z" fill="#4096C2"/>
</g>
<g filter="url(#filter1_di_11_35)">
<path d="M18.1136 64.4712C16.6195 64.4712 15.5493 64.1463 14.9032 63.4967C14.2571 62.8064 13.934 61.5274 13.934 59.6597C13.934 58.4011 14.0552 56.7972 14.2975 54.8483C14.5801 52.8588 15.0244 50.1383 15.6301 46.6871C16.68 40.3125 17.5079 34.7903 18.1136 30.121C18.477 27.1976 18.6588 24.7615 18.6588 22.8125C18.6588 20.9854 17.9925 20.0718 16.6598 20.0718C15.6099 20.0718 14.3379 20.6199 12.8437 21.7162C11.39 22.772 9.77467 24.4773 7.99784 26.8322C7.43249 27.6036 6.80657 27.9894 6.12007 27.9894C5.55471 27.9894 5.04995 27.7254 4.60573 27.1976C4.20192 26.6291 4 25.9999 4 25.3096C4 24.66 4.12115 24.0102 4.36344 23.3607C4.64611 22.6703 5.09032 21.8989 5.69606 21.0463C7.6344 18.3259 9.79485 16.2348 12.1774 14.7731C14.56 13.2708 16.9425 12.5197 19.3251 12.5197C21.546 12.5197 23.2421 13.2302 24.4132 14.6513C25.6247 16.0725 26.2304 18.1432 26.2304 20.8636C26.2304 21.9598 26.1295 23.2592 25.9276 24.7615C25.7256 26.2232 25.5439 27.4209 25.3824 28.3548C25.2209 29.2888 25.0998 29.9383 25.019 30.3038C27.3208 23.6855 29.9052 19.077 32.7724 16.4784C35.6396 13.8392 38.7894 12.5197 42.2218 12.5197C44.8467 12.5197 46.9062 13.4535 48.4003 15.3213C49.9349 17.1889 50.7021 19.8282 50.7021 23.2388C50.7021 24.5787 50.5204 26.2435 50.1569 28.233C52.1761 22.6298 54.5385 18.6101 57.244 16.1739C59.9496 13.7377 63.0591 12.5197 66.5723 12.5197C69.399 12.5197 71.5596 13.4332 73.0537 15.2604C74.5883 17.0875 75.3555 19.6455 75.3555 22.9343C75.3555 24.7209 75.0929 26.8931 74.568 29.4511L70.873 46.8698C70.4693 48.9 70.2673 50.6459 70.2673 52.1076C70.2673 53.8129 70.651 55.0919 71.4182 55.9446C72.2259 56.7972 73.3363 57.2235 74.7497 57.2235C76.0824 57.2235 77.3746 56.7768 78.6264 55.8836C79.9187 54.9904 81.4331 53.5084 83.1694 51.4376C83.654 50.8691 84.1992 50.585 84.8049 50.585C85.3298 50.585 85.7338 50.8286 86.0164 51.3158C86.3395 51.803 86.501 52.473 86.501 53.3257C86.501 54.9092 86.1173 56.1678 85.3501 57.1017C83.2503 59.6597 81.1705 61.5274 79.111 62.7049C77.0515 63.8825 74.8911 64.4712 72.6297 64.4712C69.1972 64.4712 66.5117 63.4562 64.5734 61.426C62.635 59.3552 61.6659 56.5941 61.6659 53.1429C61.6659 50.7473 62.1505 47.2757 63.1196 42.7283L65.5426 31.5828C65.6234 31.2173 65.7646 30.5677 65.9666 29.6338C66.1686 28.6999 66.33 27.827 66.4512 27.0149C66.5723 26.1623 66.6329 25.33 66.6329 24.5178C66.6329 23.0967 66.3503 22.0411 65.7849 21.3508C65.26 20.6199 64.4926 20.2545 63.4831 20.2545C61.585 20.2545 59.5861 21.493 57.4863 23.9697C55.4268 26.4059 53.4481 30.4661 51.5501 36.1506C49.6926 41.8351 48.1783 49.2247 47.0071 58.3198C46.7245 60.756 46.2197 62.4004 45.4928 63.2531C44.8062 64.0652 43.6756 64.4712 42.1007 64.4712C40.7277 64.4712 39.7181 64.1463 39.072 63.4967C38.4663 62.8471 38.1634 61.629 38.1634 59.8424C38.1634 58.1777 38.3854 56.0055 38.8297 53.3257C39.274 50.6053 39.8392 47.4179 40.5258 43.7637C42.3833 33.9377 43.3121 27.6036 43.3121 24.7615C43.3121 23.2185 43.0093 22.0817 42.4035 21.3508C41.8381 20.6199 40.97 20.2545 39.7989 20.2545C37.8202 20.2545 35.7808 21.3913 33.681 23.6652C31.5812 25.8983 29.5217 29.8978 27.5025 35.6634C25.5238 41.3884 23.8681 49.1436 22.5355 58.9289C22.2528 60.9996 21.8288 62.441 21.2634 63.2531C20.7385 64.0652 19.6885 64.4712 18.1136 64.4712Z" fill="#1E2F42"/>
<path d="M18.1136 64.4712C16.6195 64.4712 15.5493 64.1463 14.9032 63.4967C14.2571 62.8064 13.934 61.5274 13.934 59.6597C13.934 58.4011 14.0552 56.7972 14.2975 54.8483C14.5801 52.8588 15.0244 50.1383 15.6301 46.6871C16.68 40.3125 17.5079 34.7903 18.1136 30.121C18.477 27.1976 18.6588 24.7615 18.6588 22.8125C18.6588 20.9854 17.9925 20.0718 16.6598 20.0718C15.6099 20.0718 14.3379 20.6199 12.8437 21.7162C11.39 22.772 9.77467 24.4773 7.99784 26.8322C7.43249 27.6036 6.80657 27.9894 6.12007 27.9894C5.55471 27.9894 5.04995 27.7254 4.60573 27.1976C4.20192 26.6291 4 25.9999 4 25.3096C4 24.66 4.12115 24.0102 4.36344 23.3607C4.64611 22.6703 5.09032 21.8989 5.69606 21.0463C7.6344 18.3259 9.79485 16.2348 12.1774 14.7731C14.56 13.2708 16.9425 12.5197 19.3251 12.5197C21.546 12.5197 23.2421 13.2302 24.4132 14.6513C25.6247 16.0725 26.2304 18.1432 26.2304 20.8636C26.2304 21.9598 26.1295 23.2592 25.9276 24.7615C25.7256 26.2232 25.5439 27.4209 25.3824 28.3548C25.2209 29.2888 25.0998 29.9383 25.019 30.3038C27.3208 23.6855 29.9052 19.077 32.7724 16.4784C35.6396 13.8392 38.7894 12.5197 42.2218 12.5197C44.8467 12.5197 46.9062 13.4535 48.4003 15.3213C49.9349 17.1889 50.7021 19.8282 50.7021 23.2388C50.7021 24.5787 50.5204 26.2435 50.1569 28.233C52.1761 22.6298 54.5385 18.6101 57.244 16.1739C59.9496 13.7377 63.0591 12.5197 66.5723 12.5197C69.399 12.5197 71.5596 13.4332 73.0537 15.2604C74.5883 17.0875 75.3555 19.6455 75.3555 22.9343C75.3555 24.7209 75.0929 26.8931 74.568 29.4511L70.873 46.8698C70.4693 48.9 70.2673 50.6459 70.2673 52.1076C70.2673 53.8129 70.651 55.0919 71.4182 55.9446C72.2259 56.7972 73.3363 57.2235 74.7497 57.2235C76.0824 57.2235 77.3746 56.7768 78.6264 55.8836C79.9187 54.9904 81.4331 53.5084 83.1694 51.4376C83.654 50.8691 84.1992 50.585 84.8049 50.585C85.3298 50.585 85.7338 50.8286 86.0164 51.3158C86.3395 51.803 86.501 52.473 86.501 53.3257C86.501 54.9092 86.1173 56.1678 85.3501 57.1017C83.2503 59.6597 81.1705 61.5274 79.111 62.7049C77.0515 63.8825 74.8911 64.4712 72.6297 64.4712C69.1972 64.4712 66.5117 63.4562 64.5734 61.426C62.635 59.3552 61.6659 56.5941 61.6659 53.1429C61.6659 50.7473 62.1505 47.2757 63.1196 42.7283L65.5426 31.5828C65.6234 31.2173 65.7646 30.5677 65.9666 29.6338C66.1686 28.6999 66.33 27.827 66.4512 27.0149C66.5723 26.1623 66.6329 25.33 66.6329 24.5178C66.6329 23.0967 66.3503 22.0411 65.7849 21.3508C65.26 20.6199 64.4926 20.2545 63.4831 20.2545C61.585 20.2545 59.5861 21.493 57.4863 23.9697C55.4268 26.4059 53.4481 30.4661 51.5501 36.1506C49.6926 41.8351 48.1783 49.2247 47.0071 58.3198C46.7245 60.756 46.2197 62.4004 45.4928 63.2531C44.8062 64.0652 43.6756 64.4712 42.1007 64.4712C40.7277 64.4712 39.7181 64.1463 39.072 63.4967C38.4663 62.8471 38.1634 61.629 38.1634 59.8424C38.1634 58.1777 38.3854 56.0055 38.8297 53.3257C39.274 50.6053 39.8392 47.4179 40.5258 43.7637C42.3833 33.9377 43.3121 27.6036 43.3121 24.7615C43.3121 23.2185 43.0093 22.0817 42.4035 21.3508C41.8381 20.6199 40.97 20.2545 39.7989 20.2545C37.8202 20.2545 35.7808 21.3913 33.681 23.6652C31.5812 25.8983 29.5217 29.8978 27.5025 35.6634C25.5238 41.3884 23.8681 49.1436 22.5355 58.9289C22.2528 60.9996 21.8288 62.441 21.2634 63.2531C20.7385 64.0652 19.6885 64.4712 18.1136 64.4712Z" fill="#DB88A7"/>
</g>
<defs>
<filter id="filter0_di_11_35" x="71.9575" y="0.856445" width="54.4068" height="37.2227" filterUnits="userSpaceOnUse" color-interpolation-filters="sRGB">
<feFlood flood-opacity="0" result="BackgroundImageFix"/>
<feColorMatrix in="SourceAlpha" type="matrix" values="0 0 0 0 0 0 0 0 0 0 0 0 0 0 0 0 0 0 127 0" result="hardAlpha"/>
<feOffset dy="4"/>
<feGaussianBlur stdDeviation="2"/>
<feComposite in2="hardAlpha" operator="out"/>
<feColorMatrix type="matrix" values="0 0 0 0 0 0 0 0 0 0 0 0 0 0 0 0 0 0 0.25 0"/>
<feBlend mode="normal" in2="BackgroundImageFix" result="effect1_dropShadow_11_35"/>
<feBlend mode="normal" in="SourceGraphic" in2="effect1_dropShadow_11_35" result="shape"/>
<feColorMatrix in="SourceAlpha" type="matrix" values="0 0 0 0 0 0 0 0 0 0 0 0 0 0 0 0 0 0 127 0" result="hardAlpha"/>
<feOffset dy="4"/>
<feGaussianBlur stdDeviation="2"/>
<feComposite in2="hardAlpha" operator="arithmetic" k2="-1" k3="1"/>
<feColorMatrix type="matrix" values="0 0 0 0 0 0 0 0 0 0 0 0 0 0 0 0 0 0 0.1 0"/>
<feBlend mode="normal" in2="shape" result="effect2_innerShadow_11_35"/>
</filter>
<filter id="filter1_di_11_35" x="0" y="12.5197" width="90.501" height="59.9515" filterUnits="userSpaceOnUse" color-interpolation-filters="sRGB">
<feFlood flood-opacity="0" result="BackgroundImageFix"/>
<feColorMatrix in="SourceAlpha" type="matrix" values="0 0 0 0 0 0 0 0 0 0 0 0 0 0 0 0 0 0 127 0" result="hardAlpha"/>
<feOffset dy="4"/>
<feGaussianBlur stdDeviation="2"/>
<feComposite in2="hardAlpha" operator="out"/>
<feColorMatrix type="matrix" values="0 0 0 0 0 0 0 0 0 0 0 0 0 0 0 0 0 0 0.25 0"/>
<feBlend mode="normal" in2="BackgroundImageFix" result="effect1_dropShadow_11_35"/>
<feBlend mode="normal" in="SourceGraphic" in2="effect1_dropShadow_11_35" result="shape"/>
<feColorMatrix in="SourceAlpha" type="matrix" values="0 0 0 0 0 0 0 0 0 0 0 0 0 0 0 0 0 0 127 0" result="hardAlpha"/>
<feOffset dy="4"/>
<feGaussianBlur stdDeviation="2"/>
<feComposite in2="hardAlpha" operator="arithmetic" k2="-1" k3="1"/>
<feColorMatrix type="matrix" values="0 0 0 0 0 0 0 0 0 0 0 0 0 0 0 0 0 0 0.1 0"/>
<feBlend mode="normal" in2="shape" result="effect2_innerShadow_11_35"/>
</filter>
</defs>
</svg>
